<svg width="19" height="17" viewBox="0 0 19 17" fill="none" xmlns="http://www.w3.org/2000/svg">
<path d="M4.33337 8.5H6.00004L7.66671 11L11 6L12.6667 8.5H14.3334" stroke="#7881A4" stroke-width="1.4" stroke-linecap="round" stroke-linejoin="round"/>
<path d="M1.35046 5.76619C1.92611 3.55879 3.68489 1.87001 5.89346 1.40403L6.31548 1.31498C8.30598 0.895006 10.3607 0.895006 12.3512 1.31498L12.7732 1.40403C14.9818 1.87001 16.7406 3.55879 17.3162 5.76619C17.7835 7.55806 17.7835 9.44194 17.3162 11.2338C16.7406 13.4412 14.9818 15.13 12.7732 15.596L12.3512 15.685C10.3607 16.105 8.30598 16.105 6.31548 15.685L5.89346 15.596C3.68489 15.13 1.92611 13.4412 1.35046 11.2338C0.883179 9.44194 0.883179 7.55806 1.35046 5.76619Z" stroke="#7881A4" stroke-width="1.4"/>
</svg>
