<svg width="16" height="19" viewBox="0 0 16 19" fill="none" xmlns="http://www.w3.org/2000/svg">
<path fill-rule="evenodd" clip-rule="evenodd" d="M6.60358 16.755C7.03525 17.2358 7.58942 17.5 8.16442 17.5H8.16525C8.74275 17.5 9.29942 17.2358 9.73192 16.7541C9.96358 16.4983 10.3586 16.4775 10.6144 16.7083C10.8711 16.9391 10.8919 17.335 10.6611 17.5908C9.98775 18.3383 9.10192 18.75 8.16525 18.75H8.16358C7.22942 18.7491 6.34525 18.3375 5.67442 17.59C5.44358 17.3341 5.46442 16.9383 5.72108 16.7083C5.97775 16.4766 6.37275 16.4975 6.60358 16.755ZM8.20592 0.833313C11.9101 0.833313 14.3984 3.71831 14.3984 6.41248C14.3984 7.79831 14.7509 8.38581 15.1251 9.00915C15.4951 9.62415 15.9143 10.3225 15.9143 11.6425C15.6234 15.015 12.1026 15.29 8.20592 15.29C4.30925 15.29 0.787583 15.015 0.500072 11.6958C0.497583 10.3225 0.91675 9.62415 1.28675 9.00915L1.41737 8.78928C1.73898 8.23653 2.01342 7.63527 2.01342 6.41248C2.01342 3.71831 4.50175 0.833313 8.20592 0.833313ZM8.20592 2.08331C5.29342 2.08331 3.26342 4.36498 3.26342 6.41248C3.26342 8.14498 2.78258 8.94581 2.35758 9.65248C2.01675 10.22 1.74758 10.6683 1.74758 11.6425C1.88675 13.2141 2.92425 14.04 8.20592 14.04C13.4584 14.04 14.5284 13.1775 14.6667 11.5883C14.6642 10.6683 14.3951 10.22 14.0543 9.65248C13.6293 8.94581 13.1484 8.14498 13.1484 6.41248C13.1484 4.36498 11.1184 2.08331 8.20592 2.08331Z" fill="#394048"/>
</svg>
