<svg width="20" height="19" viewBox="0 0 20 19" fill="none" xmlns="http://www.w3.org/2000/svg">
<path fill-rule="evenodd" clip-rule="evenodd" d="M10.1757 0.044908C10.0586 0.0406133 9.94141 0.0406133 9.82434 0.044908C9.05153 0.0732586 8.35564 0.336049 7.59263 0.7735C6.84907 1.1998 5.99304 1.82175 4.90689 2.61089L4.84785 2.65379C3.76168 3.44293 2.90563 4.06488 2.27042 4.64031C1.6186 5.23079 1.15363 5.81142 0.887852 6.53765C0.847591 6.64766 0.811378 6.75911 0.779286 6.87178C0.567436 7.61553 0.602321 8.35857 0.78258 9.21941C0.958244 10.0583 1.28523 11.0646 1.70011 12.3415L3.14557 16.7902C3.45713 17.749 4.35067 18.3982 5.35888 18.3982C6.64415 18.3982 7.68608 17.3563 7.68608 16.071V13.7803C7.68608 13.2433 8.12135 12.8081 8.65827 12.8081H11.3417C11.8787 12.8081 12.3139 13.2433 12.3139 13.7803V16.071C12.3139 17.3563 13.3559 18.3982 14.6411 18.3982C15.6493 18.3982 16.5429 17.749 16.8544 16.7902L18.2999 12.3415C18.7148 11.0646 19.0418 10.0583 19.2174 9.21941C19.3977 8.35857 19.4326 7.61553 19.2207 6.87178C19.1886 6.75912 19.1524 6.64766 19.1122 6.53765C18.8464 5.81142 18.3814 5.23079 17.7296 4.64031C17.0944 4.06487 16.2383 3.44293 15.1522 2.65378L15.0931 2.61088C14.007 1.82174 13.1509 1.1998 12.4074 0.7735C11.6444 0.336049 10.9485 0.0732586 10.1757 0.044908ZM9.87017 1.29407C9.9567 1.29089 10.0433 1.29089 10.1298 1.29407C10.626 1.31227 11.1202 1.47641 11.7857 1.85792C12.4638 2.24671 13.2658 2.82832 14.3879 3.64362C15.5101 4.45892 16.311 5.0419 16.8904 5.56671C17.4588 6.08167 17.7677 6.50096 17.9383 6.96724C17.9681 7.04855 17.9948 7.13093 18.0185 7.21421C18.1546 7.69175 18.1512 8.21248 17.994 8.96322C17.8338 9.72832 17.5284 10.6708 17.0998 11.9899L15.6656 16.4039C15.5214 16.8477 15.1078 17.1482 14.6411 17.1482C14.0462 17.1482 13.5639 16.666 13.5639 16.071V13.7803C13.5639 12.553 12.569 11.5581 11.3417 11.5581H8.65827C7.43099 11.5581 6.43608 12.553 6.43608 13.7803V16.071C6.43608 16.666 5.9538 17.1482 5.35888 17.1482C4.8922 17.1482 4.47861 16.8477 4.3344 16.4039L2.90021 11.9899C2.47158 10.6708 2.16625 9.72832 2.00604 8.96322C1.84884 8.21248 1.84545 7.69175 1.98147 7.21421C2.00519 7.13093 2.03195 7.04856 2.06171 6.96724C2.23236 6.50096 2.54118 6.08167 3.10964 5.56671C3.68896 5.0419 4.48993 4.45892 5.61209 3.64362C6.73425 2.82832 7.53621 2.24671 8.21435 1.85792C8.87977 1.47641 9.37397 1.31227 9.87017 1.29407Z" fill="#7881A4"/>
</svg>
