<svg width="14" height="14" viewBox="0 0 14 14" fill="none" xmlns="http://www.w3.org/2000/svg">
<path d="M5.66675 7V9.66667M8.33342 7V9.66667" stroke="#F73E04" stroke-linecap="round"/>
<path d="M1 3.1884C0.723858 3.1884 0.5 3.41225 0.5 3.6884C0.5 3.96454 0.723858 4.1884 1 4.1884V3.1884ZM13 4.1884C13.2761 4.1884 13.5 3.96454 13.5 3.6884C13.5 3.41225 13.2761 3.1884 13 3.1884V4.1884ZM2.33333 3.6884V3.1884H1.83333V3.6884H2.33333ZM11.6667 3.6884H12.1667V3.1884H11.6667V3.6884ZM11.2279 10.2202L11.7083 10.3589L11.2279 10.2202ZM8.1493 12.9036L8.23262 13.3966L8.23262 13.3966L8.1493 12.9036ZM5.85067 12.9036L5.93399 12.4106L5.93398 12.4106L5.85067 12.9036ZM5.74551 12.8858L5.6622 13.3788L5.6622 13.3788L5.74551 12.8858ZM2.7721 10.2202L2.29171 10.3589L2.7721 10.2202ZM8.25448 12.8858L8.17117 12.3928L8.17117 12.3928L8.25448 12.8858ZM4.22836 2.65959L4.68222 2.86938L4.68222 2.86938L4.22836 2.65959ZM4.87868 1.78741L4.54499 1.41505L4.54499 1.41505L4.87868 1.78741ZM5.85195 1.20464L6.02595 1.67339L6.02595 1.67339L5.85195 1.20464ZM8.14805 1.20464L8.32205 0.735893L8.32205 0.735893L8.14805 1.20464ZM9.77164 2.65959L10.2255 2.44981L10.2255 2.44981L9.77164 2.65959ZM1 4.1884H13V3.1884H1V4.1884ZM8.17117 12.3928L8.06599 12.4106L8.23262 13.3966L8.33779 13.3788L8.17117 12.3928ZM5.93398 12.4106L5.82882 12.3928L5.6622 13.3788L5.76736 13.3966L5.93398 12.4106ZM11.1667 3.6884V7.11722H12.1667V3.6884H11.1667ZM2.83333 7.11724V3.6884H1.83333V7.11724H2.83333ZM11.1667 7.11722C11.1667 8.12037 11.0255 9.11842 10.7475 10.0815L11.7083 10.3589C12.0123 9.30556 12.1667 8.21414 12.1667 7.11722H11.1667ZM8.06599 12.4106C7.36024 12.5298 6.63974 12.5298 5.93399 12.4106L5.76736 13.3966C6.58341 13.5345 7.41656 13.5345 8.23262 13.3966L8.06599 12.4106ZM5.82882 12.3928C4.60349 12.1857 3.60105 11.289 3.25248 10.0815L2.29171 10.3589C2.74585 11.932 4.05444 13.1071 5.6622 13.3788L5.82882 12.3928ZM3.25248 10.0815C2.97446 9.11841 2.83333 8.12038 2.83333 7.11724H1.83333C1.83333 8.21415 1.98765 9.30555 2.29171 10.3589L3.25248 10.0815ZM8.33779 13.3788C9.94554 13.1071 11.2541 11.9321 11.7083 10.3589L10.7475 10.0815C10.3989 11.289 9.3965 12.1857 8.17117 12.3928L8.33779 13.3788ZM4.5 3.6884C4.5 3.40911 4.5613 3.13099 4.68222 2.86938L3.7745 2.44981C3.5939 2.84053 3.5 3.26159 3.5 3.6884H4.5ZM4.68222 2.86938C4.80324 2.60755 4.98238 2.36588 5.21237 2.15978L4.54499 1.41505C4.21783 1.70823 3.95501 2.05929 3.7745 2.44981L4.68222 2.86938ZM5.21237 2.15978C5.44246 1.95358 5.71851 1.78751 6.02595 1.67339L5.67796 0.735893C5.25744 0.891983 4.87205 1.12196 4.54499 1.41505L5.21237 2.15978ZM6.02595 1.67339C6.33341 1.55926 6.66454 1.5 7 1.5V0.5C6.54753 0.5 6.09845 0.579811 5.67796 0.735893L6.02595 1.67339ZM7 1.5C7.33547 1.5 7.66659 1.55926 7.97406 1.67339L8.32205 0.735893C7.90156 0.579811 7.45247 0.5 7 0.5V1.5ZM7.97406 1.67339C8.28149 1.78751 8.55754 1.95358 8.78763 2.15978L9.45501 1.41505C9.12795 1.12197 8.74256 0.891984 8.32205 0.735893L7.97406 1.67339ZM8.78763 2.15978C9.01762 2.36588 9.19676 2.60755 9.31778 2.86938L10.2255 2.44981C10.045 2.05929 9.78217 1.70823 9.45501 1.41505L8.78763 2.15978ZM9.31778 2.86938C9.4387 3.131 9.5 3.40911 9.5 3.6884H10.5C10.5 3.26159 10.4061 2.84053 10.2255 2.44981L9.31778 2.86938ZM2.33333 4.1884H11.6667V3.1884H2.33333V4.1884Z" fill="#F73E04"/>
</svg>
