<svg width="11" height="13" viewBox="0 0 11 13" fill="none" xmlns="http://www.w3.org/2000/svg">
<path d="M0.651008 1.40549C0.643739 1.63094 0.814053 1.76184 0.960482 1.90729C2.37804 3.32749 3.78833 4.75497 5.22043 6.16063C5.4894 6.42451 5.51432 6.55542 5.22977 6.83385C3.81741 8.21042 2.43204 9.614 1.03733 11.0093C0.92725 11.1194 0.802629 11.2233 0.726819 11.3552C0.595967 11.5838 0.60116 11.8248 0.802629 12.0201C1.00098 12.2134 1.23465 12.231 1.46416 12.0794C1.57839 12.0045 1.67601 11.9027 1.77363 11.8051C3.36358 10.2145 4.95249 8.62391 6.5414 7.03124C6.93811 6.63334 6.94746 6.37153 6.55387 5.9757C4.92965 4.34564 3.29919 2.7218 1.6729 1.09278C1.46208 0.881878 1.23465 0.742663 0.935558 0.883956C0.728896 0.981614 0.635431 1.16135 0.651008 1.40549Z" fill="#65728D"/>
<path d="M4.70173 0.833767C4.46806 0.823377 4.29463 0.931425 4.20844 1.14025C4.10666 1.38751 4.17001 1.60672 4.36629 1.79892C4.83569 2.25813 5.29679 2.72668 5.761 3.19211C6.7507 4.18324 7.72897 5.1858 8.73632 6.16031C9.01048 6.42523 9.02814 6.56029 8.74359 6.83768C7.34472 8.20282 5.97182 9.5929 4.58957 10.9757C4.47949 11.0858 4.36006 11.1908 4.27282 11.3165C4.10562 11.5565 4.10666 11.81 4.32163 12.0209C4.53764 12.2328 4.78585 12.2307 5.02366 12.0499C5.13271 11.9668 5.22929 11.865 5.32691 11.7674C6.90336 10.1882 8.47877 8.60904 10.0542 7.02884C10.4592 6.62263 10.4717 6.38367 10.0677 5.97746C8.4445 4.34739 6.81508 2.72356 5.18671 1.09973C5.0517 0.96467 4.91877 0.8213 4.70173 0.833767Z" fill="#65728D"/>
</svg>
