<svg width="11" height="13" viewBox="0 0 11 13" fill="none" xmlns="http://www.w3.org/2000/svg">
<path d="M10.3491 1.40549C10.3564 1.63094 10.1861 1.76184 10.0396 1.90729C8.62208 3.32749 7.21179 4.75497 5.77969 6.16063C5.51072 6.42451 5.4858 6.55542 5.77035 6.83385C7.18271 8.21042 8.56808 9.614 9.96279 11.0093C10.0729 11.1194 10.1975 11.2233 10.2733 11.3552C10.4042 11.5838 10.399 11.8248 10.1975 12.0201C9.99914 12.2134 9.76547 12.231 9.53596 12.0794C9.42173 12.0045 9.32411 11.9027 9.22649 11.8051C7.63654 10.2145 6.04763 8.62391 4.45872 7.03124C4.06201 6.63334 4.05266 6.37153 4.44626 5.9757C6.07048 4.34564 7.70093 2.7218 9.32723 1.09278C9.53804 0.881878 9.76547 0.742663 10.0646 0.883956C10.2712 0.981614 10.3647 1.16135 10.3491 1.40549Z" fill="#E8EAED"/>
<path d="M6.29827 0.833767C6.53194 0.823377 6.70537 0.931425 6.79156 1.14025C6.89334 1.38751 6.82999 1.60672 6.63371 1.79892C6.16431 2.25813 5.70321 2.72668 5.239 3.19211C4.2493 4.18324 3.27103 5.1858 2.26368 6.16031C1.98952 6.42523 1.97186 6.56029 2.25641 6.83768C3.65528 8.20282 5.02818 9.5929 6.41043 10.9757C6.52051 11.0858 6.63994 11.1908 6.72718 11.3165C6.89438 11.5565 6.89334 11.81 6.67837 12.0209C6.46236 12.2328 6.21415 12.2307 5.97634 12.0499C5.86729 11.9668 5.77071 11.865 5.67309 11.7674C4.09664 10.1882 2.52123 8.60904 0.945822 7.02884C0.540805 6.62263 0.528343 6.38367 0.932321 5.97746C2.5555 4.34739 4.18492 2.72356 5.81329 1.09973C5.9483 0.96467 6.08123 0.8213 6.29827 0.833767Z" fill="#E8EAED"/>
</svg>
