<svg width="14" height="14" viewBox="0 0 14 14" fill="none" xmlns="http://www.w3.org/2000/svg">
<path d="M3.81188 12.959L3.73367 13.4528H3.73367L3.81188 12.959ZM1.04104 10.1881L1.53488 10.1099L1.04104 10.1881ZM12.959 10.1881L13.4528 10.2663V10.2663L12.959 10.1881ZM10.1881 12.959L10.2663 13.4528H10.2663L10.1881 12.959ZM12.7334 6.03304C12.5675 5.81225 12.2541 5.7677 12.0333 5.93355C11.8125 6.0994 11.768 6.41283 11.9338 6.63362L12.7334 6.03304ZM2.06621 6.63362C2.23205 6.41283 2.18751 6.09939 1.96671 5.93355C1.74592 5.7677 1.43248 5.81225 1.26664 6.03304L2.06621 6.63362ZM7.5 1C7.5 0.723858 7.27614 0.5 7 0.5C6.72386 0.5 6.5 0.723858 6.5 1H7.5ZM4.72512 7.35602C4.55356 7.13964 4.23907 7.10331 4.02269 7.27488C3.80631 7.44644 3.76998 7.76093 3.94154 7.97731L4.72512 7.35602ZM5.26523 8.84198L4.87344 9.15263L5.26523 8.84198ZM8.73477 8.84198L8.34298 8.53133L8.73477 8.84198ZM10.0585 7.97731C10.23 7.76093 10.1937 7.44644 9.97731 7.27488C9.76093 7.10331 9.44644 7.13964 9.27488 7.35602L10.0585 7.97731ZM6.83289 10.3201L6.75422 10.8138H6.75422L6.83289 10.3201ZM7.16711 10.3201L7.24578 10.8138H7.24578L7.16711 10.3201ZM12.5 8.33333V9H13.5V8.33333H12.5ZM9 12.5H5V13.5H9V12.5ZM1.5 9V8.33333H0.5V9H1.5ZM5 12.5C4.36156 12.5 4.10055 12.4984 3.8901 12.4651L3.73367 13.4528C4.04144 13.5016 4.39977 13.5 5 13.5V12.5ZM0.5 9C0.5 9.60023 0.498448 9.95856 0.547195 10.2663L1.53488 10.1099C1.50155 9.89945 1.5 9.63844 1.5 9H0.5ZM3.8901 12.4651C2.67774 12.2731 1.7269 11.3223 1.53488 10.1099L0.547195 10.2663C0.806986 11.9066 2.09341 13.193 3.73367 13.4528L3.8901 12.4651ZM12.5 9C12.5 9.63844 12.4984 9.89945 12.4651 10.1099L13.4528 10.2663C13.5016 9.95856 13.5 9.60023 13.5 9H12.5ZM9 13.5C9.60023 13.5 9.95856 13.5016 10.2663 13.4528L10.1099 12.4651C9.89945 12.4984 9.63844 12.5 9 12.5V13.5ZM12.4651 10.1099C12.2731 11.3223 11.3223 12.2731 10.1099 12.4651L10.2663 13.4528C11.9066 13.193 13.193 11.9066 13.4528 10.2663L12.4651 10.1099ZM13.5 8.33333C13.5 7.47094 13.2146 6.67376 12.7334 6.03304L11.9338 6.63362C12.2894 7.10712 12.5 7.69492 12.5 8.33333H13.5ZM1.5 8.33333C1.5 7.69492 1.71055 7.10712 2.06621 6.63362L1.26664 6.03304C0.785376 6.67376 0.5 7.47094 0.5 8.33333H1.5ZM6.5 1V9.66667H7.5V1H6.5ZM3.94154 7.97731L4.87344 9.15263L5.65702 8.53133L4.72512 7.35602L3.94154 7.97731ZM9.12656 9.15263L10.0585 7.97731L9.27488 7.35602L8.34298 8.53133L9.12656 9.15263ZM4.87344 9.15263C5.23744 9.6117 5.5365 9.99011 5.80368 10.2583C6.07308 10.5288 6.3721 10.753 6.75422 10.8138L6.91156 9.8263C6.84077 9.81502 6.72755 9.76882 6.51215 9.55258C6.29451 9.33411 6.03619 9.00955 5.65702 8.53133L4.87344 9.15263ZM8.34298 8.53133C7.96381 9.00955 7.70549 9.33411 7.48785 9.55258C7.27245 9.76882 7.15923 9.81502 7.08844 9.8263L7.24578 10.8138C7.6279 10.753 7.92692 10.5288 8.19632 10.2583C8.4635 9.99011 8.76256 9.6117 9.12656 9.15263L8.34298 8.53133ZM6.75422 10.8138C6.83562 10.8268 6.91774 10.8333 7 10.8333V9.83333C6.97063 9.83333 6.94112 9.83101 6.91156 9.8263L6.75422 10.8138ZM7 10.8333C7.08226 10.8333 7.16438 10.8268 7.24578 10.8138L7.08844 9.8263C7.05888 9.83101 7.02937 9.83333 7 9.83333V10.8333ZM6.5 9.66667V10.3333H7.5V9.66667H6.5Z" fill="#4C40F7"/>
</svg>
