<svg width="14" height="14" viewBox="0 0 14 14" fill="none" xmlns="http://www.w3.org/2000/svg">
<path d="M1.23525 4.96695C1.66958 3.11534 3.11534 1.66958 4.96696 1.23525C6.30417 0.921583 7.69583 0.921583 9.03305 1.23525C10.8847 1.66958 12.3304 3.11534 12.7648 4.96696C13.0784 6.30417 13.0784 7.69583 12.7648 9.03305C12.3304 10.8847 10.8847 12.3304 9.03304 12.7648C7.69583 13.0784 6.30417 13.0784 4.96696 12.7648C3.11534 12.3304 1.66958 10.8847 1.23525 9.03305C0.921583 7.69583 0.921583 6.30417 1.23525 4.96695Z" stroke="#4C40F7"/>
<path d="M8.99992 6.61603C8.1919 6.88537 7.11454 5.80801 7.38388 4.99999M7.71585 4.66802L5.97504 6.40883C5.21824 7.16563 4.68135 8.11388 4.42177 9.15221L4.33766 9.48867C4.31145 9.5935 4.40641 9.68847 4.51125 9.66226L4.84771 9.57814C5.88603 9.31856 6.83428 8.78167 7.59108 8.02487L9.33189 6.28406C9.54619 6.06976 9.66658 5.7791 9.66658 5.47604C9.66658 4.84494 9.15498 4.33333 8.52387 4.33333C8.22081 4.33333 7.93015 4.45372 7.71585 4.66802Z" stroke="#4C40F7"/>
</svg>
