<svg width="20" height="15" viewBox="0 0 20 15" fill="none" xmlns="http://www.w3.org/2000/svg">
<path d="M11.8 3.45834C11.8 4.45246 10.9941 5.25834 10 5.25834V6.65834C11.7673 6.65834 13.2 5.22565 13.2 3.45834H11.8ZM10 5.25834C9.00589 5.25834 8.2 4.45246 8.2 3.45834H6.8C6.8 5.22565 8.23269 6.65834 10 6.65834V5.25834ZM8.2 3.45834C8.2 2.46423 9.00589 1.65834 10 1.65834V0.258344C8.23269 0.258344 6.8 1.69103 6.8 3.45834H8.2ZM10 1.65834C10.9941 1.65834 11.8 2.46423 11.8 3.45834H13.2C13.2 1.69103 11.7673 0.258344 10 0.258344V1.65834ZM7.5 9.15834H12.5V7.75834H7.5V9.15834ZM12.5 12.7583H7.5V14.1583H12.5V12.7583ZM7.5 12.7583C6.50589 12.7583 5.7 11.9525 5.7 10.9583H4.3C4.3 12.7257 5.73269 14.1583 7.5 14.1583V12.7583ZM14.3 10.9583C14.3 11.9525 13.4941 12.7583 12.5 12.7583V14.1583C14.2673 14.1583 15.7 12.7257 15.7 10.9583H14.3ZM12.5 9.15834C13.4941 9.15834 14.3 9.96423 14.3 10.9583H15.7C15.7 9.19103 14.2673 7.75834 12.5 7.75834V9.15834ZM7.5 7.75834C5.73269 7.75834 4.3 9.19103 4.3 10.9583H5.7C5.7 9.96423 6.50589 9.15834 7.5 9.15834V7.75834Z" fill="#7881A4"/>
<path d="M6.46016 5.65722C6.32872 5.44607 6.08209 5.33334 5.83337 5.33334C4.79784 5.33334 3.95837 4.49388 3.95837 3.45834C3.95837 2.42281 4.79784 1.58334 5.83337 1.58334C6.08209 1.58334 6.32872 1.47062 6.46016 1.25947C6.46597 1.25013 6.47182 1.24081 6.47771 1.23152C6.69654 0.8861 6.58566 0.397011 6.17921 0.352263C6.06565 0.339761 5.95026 0.333344 5.83337 0.333344C4.10748 0.333344 2.70837 1.73245 2.70837 3.45834C2.70837 5.18423 4.10748 6.58334 5.83337 6.58334C5.95026 6.58334 6.06565 6.57693 6.17921 6.56442C6.58566 6.51968 6.69654 6.03059 6.47771 5.68516C6.47182 5.67587 6.46597 5.66656 6.46016 5.65722Z" fill="#7881A4"/>
<path d="M3.92361 12.2641C3.82902 12.1062 3.66204 12 3.47803 12H3.33337C2.29784 12 1.45837 11.1605 1.45837 10.125C1.45837 9.08948 2.29784 8.25001 3.33337 8.25001H3.47803C3.66204 8.25001 3.82902 8.14378 3.92361 7.98595C4.15453 7.6007 3.90395 7.00001 3.45478 7.00001H3.33337C1.60748 7.00001 0.208374 8.39912 0.208374 10.125C0.208374 11.8509 1.60748 13.25 3.33337 13.25H3.45478C3.90395 13.25 4.15453 12.6493 3.92361 12.2641Z" fill="#7881A4"/>
<path d="M13.5224 5.68516C13.3035 6.03059 13.4144 6.51968 13.8209 6.56442C13.9344 6.57693 14.0498 6.58334 14.1667 6.58334C15.8926 6.58334 17.2917 5.18423 17.2917 3.45834C17.2917 1.73245 15.8926 0.333344 14.1667 0.333344C14.0498 0.333344 13.9344 0.339761 13.8209 0.352263C13.4144 0.397011 13.3035 0.8861 13.5224 1.23152C13.5283 1.24081 13.5341 1.25013 13.5399 1.25946C13.6714 1.47061 13.918 1.58334 14.1667 1.58334C15.2022 1.58334 16.0417 2.42281 16.0417 3.45834C16.0417 4.49388 15.2022 5.33334 14.1667 5.33334C13.918 5.33334 13.6714 5.44607 13.5399 5.65722C13.5341 5.66656 13.5283 5.67587 13.5224 5.68516Z" fill="#7881A4"/>
<path d="M16.0765 12.2641C15.8455 12.6493 16.0961 13.25 16.5453 13.25H16.6667C18.3926 13.25 19.7917 11.8509 19.7917 10.125C19.7917 8.39912 18.3926 7.00001 16.6667 7.00001H16.5453C16.0961 7.00001 15.8455 7.6007 16.0765 7.98595C16.1711 8.14378 16.338 8.25001 16.5221 8.25001H16.6667C17.7022 8.25001 18.5417 9.08948 18.5417 10.125C18.5417 11.1605 17.7022 12 16.6667 12H16.5221C16.338 12 16.1711 12.1062 16.0765 12.2641Z" fill="#7881A4"/>
</svg>
