<svg width="14" height="19" viewBox="0 0 14 19" fill="none" xmlns="http://www.w3.org/2000/svg">
<path d="M9.63329 5.00001C9.63329 6.45436 8.45431 7.63334 6.99996 7.63334V9.03334C9.22751 9.03334 11.0333 7.22755 11.0333 5.00001H9.63329ZM6.99996 7.63334C5.54561 7.63334 4.36663 6.45436 4.36663 5.00001H2.96663C2.96663 7.22755 4.77241 9.03334 6.99996 9.03334V7.63334ZM4.36663 5.00001C4.36663 3.54566 5.54561 2.36667 6.99996 2.36667V0.966672C4.77241 0.966672 2.96663 2.77246 2.96663 5.00001H4.36663ZM6.99996 2.36667C8.45431 2.36667 9.63329 3.54566 9.63329 5.00001H11.0333C11.0333 2.77246 9.22751 0.966672 6.99996 0.966672V2.36667ZM4.49996 11.5333H9.49996V10.1333H4.49996V11.5333ZM9.49996 16.8H4.49996V18.2H9.49996V16.8ZM4.49996 16.8C3.04561 16.8 1.86663 15.621 1.86663 14.1667H0.466626C0.466626 16.3942 2.27241 18.2 4.49996 18.2V16.8ZM12.1333 14.1667C12.1333 15.621 10.9543 16.8 9.49996 16.8V18.2C11.7275 18.2 13.5333 16.3942 13.5333 14.1667H12.1333ZM9.49996 11.5333C10.9543 11.5333 12.1333 12.7123 12.1333 14.1667H13.5333C13.5333 11.9391 11.7275 10.1333 9.49996 10.1333V11.5333ZM4.49996 10.1333C2.27241 10.1333 0.466626 11.9391 0.466626 14.1667H1.86663C1.86663 12.7123 3.04561 11.5333 4.49996 11.5333V10.1333Z" fill="#7881A4"/>
</svg>
