<svg width="16" height="18" viewBox="0 0 16 18" fill="none" xmlns="http://www.w3.org/2000/svg">
<path d="M13.4134 12.0462L13.3195 11.4536L13.4134 12.0462ZM10.2962 15.1634L9.70356 15.0695L10.2962 15.1634ZM2.79581 15.7838L3.14848 15.2984L2.79581 15.7838ZM1.96619 14.9542L2.4516 14.6015L1.96619 14.9542ZM14.0338 14.9542L14.5192 15.3069L14.0338 14.9542ZM13.2042 15.7838L12.8515 15.2984L13.2042 15.7838ZM13.2042 2.21619L12.8515 2.7016L13.2042 2.21619ZM14.0338 3.04581L13.5484 3.39848L14.0338 3.04581ZM2.79581 2.21619L3.14848 2.7016L2.79581 2.21619ZM1.96619 3.04581L2.4516 3.39848L1.96619 3.04581ZM14.7283 12L15.328 12.0205L14.7283 12ZM10.25 16.4783L10.2706 17.078L10.25 16.4783ZM5 11.4C4.66863 11.4 4.4 11.6686 4.4 12C4.4 12.3314 4.66863 12.6 5 12.6V11.4ZM7.25 12.6C7.58137 12.6 7.85 12.3314 7.85 12C7.85 11.6686 7.58137 11.4 7.25 11.4V12.6ZM5 8.4C4.66863 8.4 4.4 8.66863 4.4 9C4.4 9.33137 4.66863 9.6 5 9.6V8.4ZM11 9.6C11.3314 9.6 11.6 9.33137 11.6 9C11.6 8.66863 11.3314 8.4 11 8.4V9.6ZM5 5.4C4.66863 5.4 4.4 5.66863 4.4 6C4.4 6.33137 4.66863 6.6 5 6.6V5.4ZM7.25 6.6C7.58137 6.6 7.85 6.33137 7.85 6C7.85 5.66863 7.58137 5.4 7.25 5.4V6.6ZM13.3195 11.4536C11.4582 11.7484 9.99836 13.2082 9.70356 15.0695L10.8888 15.2572C11.1023 13.9094 12.1594 12.8523 13.5072 12.6388L13.3195 11.4536ZM14.15 8.25V9.75H15.35V8.25H14.15ZM1.85 9.75V8.25H0.65V9.75H1.85ZM8 15.9C6.58049 15.9 5.56404 15.8992 4.77757 15.814C4.00233 15.73 3.52202 15.5698 3.14848 15.2984L2.44313 16.2692C3.05533 16.714 3.77097 16.9119 4.64832 17.007C5.51443 17.1008 6.60722 17.1 8 17.1V15.9ZM0.65 9.75C0.65 11.1428 0.649176 12.2356 0.743014 13.1017C0.838068 13.979 1.03599 14.6947 1.48078 15.3069L2.4516 14.6015C2.1802 14.228 2.02002 13.7477 1.93603 12.9724C1.85082 12.186 1.85 11.1695 1.85 9.75H0.65ZM3.14848 15.2984C2.88106 15.1041 2.64589 14.8689 2.4516 14.6015L1.48078 15.3069C1.74908 15.6762 2.07384 16.0009 2.44313 16.2692L3.14848 15.2984ZM13.5484 14.6015C13.3541 14.8689 13.1189 15.1041 12.8515 15.2984L13.5569 16.2692C13.9262 16.0009 14.2509 15.6762 14.5192 15.3069L13.5484 14.6015ZM8 2.1C9.41951 2.1 10.436 2.10082 11.2224 2.18603C11.9977 2.27002 12.478 2.4302 12.8515 2.7016L13.5569 1.73078C12.9447 1.28599 12.229 1.08807 11.3517 0.993014C10.4856 0.899176 9.39279 0.9 8 0.9V2.1ZM15.35 8.25C15.35 6.85722 15.3508 5.76443 15.257 4.89832C15.1619 4.02097 14.964 3.30533 14.5192 2.69313L13.5484 3.39848C13.8198 3.77202 13.98 4.25233 14.064 5.02757C14.1492 5.81404 14.15 6.83049 14.15 8.25H15.35ZM12.8515 2.7016C13.1189 2.89589 13.3541 3.13106 13.5484 3.39848L14.5192 2.69313C14.2509 2.32384 13.9262 1.99908 13.5569 1.73078L12.8515 2.7016ZM8 0.9C6.60722 0.9 5.51443 0.899176 4.64832 0.993014C3.77097 1.08807 3.05533 1.28599 2.44313 1.73078L3.14848 2.7016C3.52202 2.4302 4.00233 2.27002 4.77757 2.18603C5.56404 2.10082 6.58049 2.1 8 2.1V0.9ZM1.85 8.25C1.85 6.83049 1.85082 5.81404 1.93603 5.02757C2.02002 4.25233 2.1802 3.77202 2.4516 3.39848L1.48078 2.69313C1.03599 3.30533 0.838068 4.02097 0.743014 4.89832C0.649176 5.76443 0.65 6.85722 0.65 8.25H1.85ZM2.44313 1.73078C2.07384 1.99908 1.74908 2.32384 1.48078 2.69313L2.4516 3.39848C2.64589 3.13106 2.88106 2.89589 3.14848 2.7016L2.44313 1.73078ZM14.15 9.75C14.15 10.63 14.1499 11.3587 14.1287 11.9795L15.328 12.0205C15.3501 11.3748 15.35 10.6234 15.35 9.75H14.15ZM14.1287 11.9795C14.081 13.3702 13.9256 14.0823 13.5484 14.6015L14.5192 15.3069C15.1278 14.4692 15.2798 13.4261 15.328 12.0205L14.1287 11.9795ZM14.7283 11.4C14.068 11.4 13.6662 11.3987 13.3195 11.4536L13.5072 12.6388C13.7375 12.6023 14.024 12.6 14.7283 12.6L14.7283 11.4ZM8 17.1C8.87338 17.1 9.62483 17.1001 10.2706 17.078L10.2295 15.8787C9.60866 15.8999 8.88002 15.9 8 15.9V17.1ZM10.2706 17.078C11.6761 17.0298 12.7192 16.8778 13.5569 16.2692L12.8515 15.2984C12.3323 15.6756 11.6202 15.831 10.2295 15.8787L10.2706 17.078ZM10.85 16.4783C10.85 15.774 10.8523 15.4875 10.8888 15.2572L9.70356 15.0695C9.64865 15.4162 9.65001 15.818 9.65001 16.4783L10.85 16.4783ZM5 12.6H7.25V11.4H5V12.6ZM5 9.6H11V8.4H5V9.6ZM5 6.6H7.25V5.4H5V6.6Z" fill="#FF3B30"/>
</svg>
