<svg width="18" height="18" viewBox="0 0 18 18" fill="none" xmlns="http://www.w3.org/2000/svg">
<path d="M5.66667 4.20833C5.32149 4.20833 5.04167 4.48815 5.04167 4.83333C5.04167 5.17851 5.32149 5.45833 5.66667 5.45833L12.3333 5.45833C12.6785 5.45833 12.9583 5.17851 12.9583 4.83333C12.9583 4.48816 12.6785 4.20833 12.3333 4.20833L5.66667 4.20833Z" fill="#65728D"/>
<path fill-rule="evenodd" clip-rule="evenodd" d="M4.39372 0.875C2.46762 0.875 0.875 2.39631 0.875 4.31089C0.875 5.2804 1.29407 6.2009 2.02273 6.84972L4.73322 9.26322C5.46345 9.91343 5.875 10.8271 5.875 11.78V15.2612C5.875 16.8121 7.65456 17.6392 8.88246 16.7717L10.5002 15.6289C11.2551 15.0956 11.7083 14.238 11.7083 13.3181V11.8767C11.7083 10.8769 12.1613 9.92252 12.9554 9.26983L15.889 6.8586C16.6698 6.21689 17.125 5.26901 17.125 4.265C17.125 2.37577 15.5535 0.875 13.6535 0.875H4.39372ZM2.125 4.31089C2.125 3.12064 3.12351 2.125 4.39372 2.125H13.6535C14.8976 2.125 15.875 3.1001 15.875 4.265C15.875 4.88765 15.593 5.48391 15.0953 5.89293L12.1617 8.30416C11.0845 9.18953 10.4583 10.4955 10.4583 11.8767V13.3181C10.4583 13.8227 10.2099 14.3035 9.77894 14.608L8.16122 15.7508C7.70621 16.0722 7.125 15.7316 7.125 15.2612V11.78C7.125 10.4639 6.55617 9.2127 5.56448 8.32967L2.85399 5.91617C2.3868 5.50017 2.125 4.9172 2.125 4.31089Z" fill="#65728D"/>
</svg>
