<svg width="20" height="20" viewBox="0 0 20 20" fill="none" xmlns="http://www.w3.org/2000/svg">
<path d="M4.99996 9.99999C4.99996 10.9205 4.25377 11.6667 3.33329 11.6667C2.41282 11.6667 1.66663 10.9205 1.66663 9.99999C1.66663 9.07951 2.41282 8.33332 3.33329 8.33332C4.25377 8.33332 4.99996 9.07951 4.99996 9.99999Z" stroke="#7881A4" stroke-width="1.4"/>
<path d="M11.6666 9.99999C11.6666 10.9205 10.9204 11.6667 9.99996 11.6667C9.07949 11.6667 8.3333 10.9205 8.3333 9.99999C8.3333 9.07951 9.07949 8.33332 9.99996 8.33332C10.9204 8.33332 11.6666 9.07951 11.6666 9.99999Z" stroke="#7881A4" stroke-width="1.4"/>
<path d="M18.3333 9.99999C18.3333 10.9205 17.5871 11.6667 16.6666 11.6667C15.7462 11.6667 15 10.9205 15 9.99999C15 9.07951 15.7462 8.33332 16.6666 8.33332C17.5871 8.33332 18.3333 9.07951 18.3333 9.99999Z" stroke="#7881A4" stroke-width="1.4"/>
<path d="M4.99996 3.33332C4.99996 4.2538 4.25377 4.99999 3.33329 4.99999C2.41282 4.99999 1.66663 4.2538 1.66663 3.33332C1.66663 2.41285 2.41282 1.66666 3.33329 1.66666C4.25377 1.66666 4.99996 2.41285 4.99996 3.33332Z" stroke="#7881A4" stroke-width="1.4"/>
<path d="M11.6666 3.33332C11.6666 4.2538 10.9204 4.99999 9.99996 4.99999C9.07949 4.99999 8.3333 4.2538 8.3333 3.33332C8.3333 2.41285 9.07949 1.66666 9.99996 1.66666C10.9204 1.66666 11.6666 2.41285 11.6666 3.33332Z" stroke="#7881A4" stroke-width="1.4"/>
<path d="M18.3333 3.33332C18.3333 4.2538 17.5871 4.99999 16.6666 4.99999C15.7462 4.99999 15 4.2538 15 3.33332C15 2.41285 15.7462 1.66666 16.6666 1.66666C17.5871 1.66666 18.3333 2.41285 18.3333 3.33332Z" stroke="#7881A4" stroke-width="1.4"/>
<path d="M4.99996 16.6667C4.99996 17.5871 4.25377 18.3333 3.33329 18.3333C2.41282 18.3333 1.66663 17.5871 1.66663 16.6667C1.66663 15.7462 2.41282 15 3.33329 15C4.25377 15 4.99996 15.7462 4.99996 16.6667Z" stroke="#7881A4" stroke-width="1.4"/>
<path d="M11.6666 16.6667C11.6666 17.5871 10.9204 18.3333 9.99996 18.3333C9.07949 18.3333 8.3333 17.5871 8.3333 16.6667C8.3333 15.7462 9.07949 15 9.99996 15C10.9204 15 11.6666 15.7462 11.6666 16.6667Z" stroke="#7881A4" stroke-width="1.4"/>
<path d="M18.3333 16.6667C18.3333 17.5871 17.5871 18.3333 16.6666 18.3333C15.7462 18.3333 15 17.5871 15 16.6667C15 15.7462 15.7462 15 16.6666 15C17.5871 15 18.3333 15.7462 18.3333 16.6667Z" stroke="#7881A4" stroke-width="1.4"/>
</svg>
