<svg width="15" height="18" viewBox="0 0 15 18" fill="none" xmlns="http://www.w3.org/2000/svg">
<path fill-rule="evenodd" clip-rule="evenodd" d="M9.18985 1.08277C9.71591 0.891648 10.2379 0.79198 10.7615 0.962328C11.0204 1.04656 11.2622 1.17626 11.4757 1.34534C11.9063 1.68653 12.1122 2.1731 12.2439 2.71416C12.3719 3.23989 12.453 3.92405 12.552 4.75982L12.5978 5.14619C12.6586 5.65937 12.6803 5.79471 12.7296 5.91158C12.7455 5.94933 12.7636 5.98611 12.7838 6.02173C12.8465 6.13198 12.9406 6.2317 13.3104 6.59265L13.9807 7.24694C14.6355 7.88611 14.8415 8.85651 14.5027 9.70655C13.9915 10.9891 12.4617 11.5199 11.266 10.8296L9.68594 9.91738L7.62888 13.7809C7.52186 13.9819 7.45592 14.1057 7.38235 14.2263C7.24774 14.4467 7.09553 14.656 6.9272 14.8519C6.83519 14.959 6.73765 15.0599 6.57935 15.2236L6.55098 15.2529C5.80193 16.0276 5.22166 16.6278 4.77079 17.0472C4.54325 17.2589 4.33454 17.4381 4.14245 17.5754C3.95661 17.7082 3.74674 17.8311 3.51885 17.8878C2.32198 18.1853 1.10428 17.4823 0.76352 16.297C0.698637 16.0713 0.700157 15.8281 0.722274 15.6007C0.745135 15.3657 0.795902 15.0954 0.865474 14.7925C1.00333 14.1923 1.23292 13.3897 1.52929 12.3536L1.54052 12.3144C1.60314 12.0955 1.64173 11.9606 1.68847 11.8273C1.774 11.5836 1.8791 11.3471 2.00274 11.1203C2.07031 10.9964 2.1446 10.8773 2.26516 10.6842L4.58253 6.97093L3.00254 6.05872C1.80683 5.36838 1.50159 3.77805 2.35675 2.69408C2.92352 1.97566 3.86688 1.66882 4.74784 1.91635L5.58364 2.15119C6.08934 2.29328 6.22516 2.32542 6.35327 2.32415C6.41392 2.32355 6.47441 2.31765 6.53403 2.30652C6.65984 2.28304 6.78856 2.22448 7.26183 1.98507L7.29855 1.9665C8.05734 1.58265 8.67759 1.26888 9.18985 1.08277ZM9.61669 2.25763C9.18364 2.41497 8.63059 2.69352 7.82606 3.10049C7.80397 3.11166 7.78217 3.12271 7.76062 3.13362C7.38391 3.32451 7.08717 3.47488 6.76334 3.53531C6.63216 3.55979 6.49909 3.57276 6.36566 3.57409C6.03627 3.57735 5.7183 3.48777 5.31512 3.37418C5.2922 3.36772 5.269 3.36119 5.24551 3.35459L4.40971 3.11975C4.0149 3.00882 3.59213 3.14633 3.33812 3.46829C2.95488 3.95409 3.09167 4.6668 3.62754 4.97619L11.891 9.74707C12.4268 10.0565 13.1124 9.81856 13.3415 9.24376C13.4934 8.86281 13.4011 8.42792 13.1076 8.14147L12.4373 7.48718C12.4201 7.47046 12.4032 7.45395 12.3864 7.43764C12.0911 7.14974 11.858 6.92255 11.697 6.63925C11.6525 6.56089 11.6126 6.47998 11.5777 6.39692C11.4511 6.09665 11.4131 5.77339 11.3648 5.36376C11.3621 5.34055 11.3593 5.31707 11.3565 5.29329L11.3156 4.94798C11.2105 4.06106 11.1373 3.45299 11.0294 3.00983C10.9232 2.57341 10.8079 2.41107 10.6994 2.3251C10.6024 2.24825 10.4925 2.1893 10.3748 2.15101C10.2443 2.10856 10.0442 2.10232 9.61669 2.25763ZM5.6657 7.59629L3.33596 11.3294C3.20192 11.5442 3.14814 11.6308 3.10025 11.7186C3.00887 11.8863 2.93119 12.061 2.86797 12.2412C2.83485 12.3356 2.80656 12.4336 2.73693 12.677C2.43353 13.7376 2.21328 14.5083 2.08375 15.0723C2.01918 15.3534 1.98172 15.5642 1.9664 15.7218C1.95884 15.7994 1.95747 15.8565 1.95917 15.8971C1.9608 15.9359 1.96491 15.9518 1.96491 15.9518C2.11979 16.4905 2.67314 16.8099 3.21713 16.6747C3.21713 16.6747 3.23227 16.6707 3.26731 16.6524C3.30336 16.6335 3.35208 16.6038 3.41557 16.5584C3.54431 16.4664 3.70814 16.3286 3.91933 16.1321C4.34298 15.7379 4.90032 15.1618 5.66714 14.3688C5.84313 14.1867 5.91385 14.1133 5.97904 14.0374C6.10346 13.8925 6.21596 13.7379 6.31545 13.5749C6.36758 13.4895 6.41572 13.3996 6.53471 13.1762L8.60277 9.29201L5.6657 7.59629Z" fill="#4C40F7"/>
</svg>
