<svg width="18" height="18" viewBox="0 0 18 18" fill="none" xmlns="http://www.w3.org/2000/svg">
<path d="M9.06 7.04186C9.61732 7.59918 9.61732 8.50277 9.06 9.06009C8.50268 9.61741 7.59909 9.61741 7.04177 9.06009C6.48445 8.50277 6.48445 7.59918 7.04177 7.04186C7.59909 6.48454 8.50268 6.48454 9.06 7.04186Z" fill="#7881A4"/>
<path d="M4.15673 12.4641L3.81089 13.0727L3.81089 13.0727L4.15673 12.4641ZM2.22836 11.2056L1.73703 11.7042L2.22836 11.2056ZM1.09199 6.70072L1.78994 6.75427L1.09199 6.70072ZM1.05719 9.00316L1.74528 8.87457L1.05719 9.00316ZM10.9476 13.7953L10.5747 13.2029L10.9476 13.7953ZM5.7216 13.3533L6.06743 12.7447L6.06743 12.7447L5.7216 13.3533ZM7.52349 14.258L7.32117 14.9281L7.52349 14.258ZM13.3533 5.7216L13.9619 5.37576L13.9619 5.37576L13.3533 5.7216ZM14.258 7.52349L14.9281 7.32117L14.258 7.52349ZM13.7953 10.9476L13.2029 10.5747L13.2029 10.5747L13.7953 10.9476ZM6.70072 1.09199L6.75428 1.78994L6.70072 1.09199ZM9.00316 1.05719L8.87458 1.74528L9.00316 1.05719ZM12.4641 4.15673L11.8555 4.50257L11.8555 4.50257L12.4641 4.15673ZM11.2056 2.22836L11.7042 1.73703L11.7042 1.73703L11.2056 2.22836ZM3.73398 1.54196L4.0093 2.18554L4.0093 2.18554L3.73398 1.54196ZM1.54196 3.73397L2.18554 4.0093L2.18554 4.0093L1.54196 3.73397ZM9.53528 14.6395L10.0303 14.1445L10.0303 14.1445L9.53528 14.6395ZM2.99584 2.00582C2.72247 1.73245 2.27925 1.73245 2.00589 2.00582C1.73252 2.27919 1.73252 2.7224 2.00589 2.99577L2.99584 2.00582ZM6.54691 7.53679C6.82028 7.81016 7.26349 7.81016 7.53686 7.53679C7.81023 7.26342 7.81023 6.82021 7.53686 6.54684L6.54691 7.53679ZM14.3973 9.29313L13.7038 9.19815L14.3973 9.29313ZM9.29307 14.3973L9.1981 13.7038L9.29307 14.3973ZM11.8555 4.50257L12.7447 6.06743L13.9619 5.37576L13.0727 3.81089L11.8555 4.50257ZM6.06743 12.7447L4.50257 11.8555L3.81089 13.0727L5.37576 13.9619L6.06743 12.7447ZM4.50257 11.8555C3.44248 11.2531 3.02849 11.0113 2.71969 10.707L1.73703 11.7042C2.20822 12.1685 2.81981 12.5095 3.81089 13.0727L4.50257 11.8555ZM0.394042 6.64716C0.306829 7.78374 0.247586 8.48146 0.369104 9.13174L1.74528 8.87457C1.66564 8.44841 1.69665 7.96999 1.78994 6.75427L0.394042 6.64716ZM2.71969 10.707C2.21538 10.21 1.87534 9.57055 1.74528 8.87457L0.369103 9.13174C0.551684 10.1088 1.02906 11.0065 1.73703 11.7042L2.71969 10.707ZM11.9498 11.9498C11.1906 12.709 10.8878 13.0058 10.5747 13.2029L11.3206 14.3877C11.799 14.0865 12.2304 13.649 12.9397 12.9397L11.9498 11.9498ZM5.37576 13.9619C6.24789 14.4575 6.77994 14.7647 7.32117 14.9281L7.72581 13.5879C7.37166 13.481 7.00091 13.2752 6.06743 12.7447L5.37576 13.9619ZM12.7447 6.06743C13.2752 7.00091 13.481 7.37166 13.5879 7.72581L14.9281 7.32117C14.7647 6.77994 14.4575 6.24789 13.9619 5.37576L12.7447 6.06743ZM12.9397 12.9397C13.649 12.2304 14.0865 11.799 14.3877 11.3206L13.2029 10.5747C13.0058 10.8878 12.709 11.1906 11.9498 11.9498L12.9397 12.9397ZM6.75428 1.78994C7.96999 1.69665 8.44841 1.66564 8.87458 1.74528L9.13174 0.369103C8.48146 0.247586 7.78374 0.306829 6.64716 0.394042L6.75428 1.78994ZM13.0727 3.81089C12.5095 2.81982 12.1685 2.20822 11.7042 1.73703L10.707 2.71969C11.0113 3.02849 11.2531 3.44248 11.8555 4.50257L13.0727 3.81089ZM8.87458 1.74528C9.57056 1.87534 10.21 2.21538 10.707 2.71969L11.7042 1.73703C11.0065 1.02906 10.1088 0.551683 9.13174 0.369103L8.87458 1.74528ZM6.64716 0.394042C5.14561 0.509262 4.2246 0.570708 3.45865 0.898377L4.0093 2.18554C4.5099 1.97138 5.14453 1.91346 6.75428 1.78994L6.64716 0.394042ZM1.78994 6.75427C1.91346 5.14453 1.97138 4.5099 2.18554 4.0093L0.898377 3.45865C0.570708 4.2246 0.509262 5.14561 0.394042 6.64716L1.78994 6.75427ZM3.45865 0.898377C2.3077 1.39075 1.39075 2.3077 0.898377 3.45865L2.18554 4.0093C2.53627 3.18944 3.18944 2.53627 4.0093 2.18554L3.45865 0.898377ZM11.0101 15.1243L10.0303 14.1445L9.0403 15.1345L10.0201 16.1143L11.0101 15.1243ZM14.1445 10.0303L15.1243 11.0101L16.1143 10.0201L15.1345 9.04034L14.1445 10.0303ZM15.1243 15.1243C13.9882 16.2605 12.1462 16.2605 11.0101 15.1243L10.0201 16.1143C11.703 17.7972 14.4314 17.7972 16.1143 16.1143L15.1243 15.1243ZM16.1143 16.1143C17.7971 14.4314 17.7971 11.703 16.1143 10.0201L15.1243 11.0101C16.2604 12.1462 16.2604 13.9882 15.1243 15.1243L16.1143 16.1143ZM2.00589 2.99577L6.54691 7.53679L7.53686 6.54684L2.99584 2.00582L2.00589 2.99577ZM13.5879 7.72581C13.7335 8.20813 13.7706 8.71018 13.7038 9.19815L15.0908 9.38811C15.1846 8.70319 15.1326 7.99825 14.9281 7.32117L13.5879 7.72581ZM13.7038 9.19815C13.6375 9.68205 13.4691 10.1519 13.2029 10.5747L14.3877 11.3206C14.7613 10.727 14.9978 10.0673 15.0908 9.38811L13.7038 9.19815ZM15.1345 9.04034L14.8923 8.79816L13.9023 9.78811L14.1445 10.0303L15.1345 9.04034ZM10.5747 13.2029C10.1519 13.4691 9.68201 13.6375 9.1981 13.7038L9.38804 15.0908C10.0673 14.9978 10.727 14.7613 11.3206 14.3877L10.5747 13.2029ZM9.1981 13.7038C8.71014 13.7706 8.20811 13.7335 7.72581 13.5879L7.32117 14.9281C7.99822 15.1325 8.70314 15.1846 9.38804 15.0908L9.1981 13.7038ZM10.0303 14.1445L9.78804 13.9023L8.79809 14.8923L9.0403 15.1345L10.0303 14.1445Z" fill="#7881A4"/>
</svg>
