<svg width="18" height="18" viewBox="0 0 18 18" fill="none" xmlns="http://www.w3.org/2000/svg">
<path fill-rule="evenodd" clip-rule="evenodd" d="M9 1.70842C6.81387 1.70842 5.04167 3.48062 5.04167 5.66675C5.04167 7.85288 6.81387 9.62508 9 9.62508C11.1861 9.62508 12.9583 7.85288 12.9583 5.66675C12.9583 3.48062 11.1861 1.70842 9 1.70842ZM6.29167 5.66675C6.29167 4.17098 7.50423 2.95842 9 2.95842C10.4958 2.95842 11.7083 4.17098 11.7083 5.66675C11.7083 7.16252 10.4958 8.37508 9 8.37508C7.50423 8.37508 6.29167 7.16252 6.29167 5.66675Z" fill="#4C40F7"/>
<path fill-rule="evenodd" clip-rule="evenodd" d="M12.6386 0.107787C11.8758 0.0417404 10.9247 0.0417438 9.71153 0.0417481H8.28847C7.0753 0.0417438 6.12419 0.0417404 5.36135 0.107787C4.58431 0.175063 3.94434 0.314403 3.37026 0.627871C2.56404 1.0681 1.90135 1.73079 1.46112 2.53701C1.14766 3.11108 1.00831 3.75106 0.941039 4.5281C0.874992 5.29093 0.874996 6.24204 0.875 7.45521V10.0838C0.875 10.1326 0.875 10.1623 0.875279 10.1882C0.8932 11.8487 1.7551 13.3056 3.04974 14.1509C3.78882 14.6335 4.6698 14.9176 5.61496 14.9278C5.64082 14.9281 5.67048 14.9281 5.71912 14.9281L5.72892 14.9281L5.72994 14.9281C5.78578 14.9284 5.83915 14.9511 5.87809 14.9911L5.87877 14.9918L6.17879 15.3036C6.71675 15.8625 7.16454 16.3278 7.56881 16.6474C7.99499 16.9843 8.44792 17.2217 9 17.2217C9.55208 17.2217 10.005 16.9843 10.4312 16.6474C10.8355 16.3278 11.2832 15.8626 11.8212 15.3036L12.1219 14.9911C12.1609 14.9511 12.2142 14.9284 12.2701 14.9281L12.2711 14.9281L12.2809 14.9281C12.3295 14.9281 12.3592 14.9281 12.385 14.9278C13.3302 14.9176 14.2112 14.6335 14.9503 14.1509C16.2449 13.3056 17.1068 11.8486 17.1247 10.1882C17.125 10.1622 17.125 10.1324 17.125 10.0832V7.45519C17.125 6.24203 17.125 5.29093 17.059 4.5281C16.9917 3.75106 16.8523 3.11108 16.5389 2.53701C16.0986 1.73079 15.436 1.0681 14.6297 0.627871C14.0557 0.314403 13.4157 0.175063 12.6386 0.107787ZM3.96933 1.72497C4.32865 1.52877 4.77453 1.41327 5.46917 1.35313C6.1718 1.29229 7.06889 1.29175 8.31818 1.29175H9.68182C10.9311 1.29175 11.8282 1.29229 12.5308 1.35313C13.2255 1.41327 13.6714 1.52877 14.0307 1.72497C14.6266 2.05036 15.1164 2.54017 15.4418 3.13607C15.638 3.49539 15.7535 3.94128 15.8136 4.63592C15.8745 5.33855 15.875 6.23564 15.875 7.48493V10.0792C15.875 10.0895 15.875 10.0986 15.875 10.1068C15.875 10.1422 15.875 10.1598 15.8748 10.1747C15.8643 11.1501 15.4602 12.0309 14.8125 12.6658C14.1057 11.5879 12.8866 10.8751 11.5 10.8751H6.5C5.11338 10.8751 3.8943 11.5879 3.18754 12.6658C2.53978 12.0309 2.13573 11.1501 2.12521 10.1747C2.12501 10.1564 2.125 10.134 2.125 10.0792V7.48493C2.125 6.23564 2.12555 5.33855 2.18638 4.63592C2.24652 3.94128 2.36202 3.49539 2.55822 3.13607C2.88361 2.54017 3.37342 2.05036 3.96933 1.72497ZM11.5 12.1251C12.4561 12.1251 13.2976 12.6207 13.7797 13.3704C13.3494 13.5631 12.8735 13.6725 12.3716 13.6779C12.3533 13.6781 12.3309 13.6781 12.2761 13.6781L12.2631 13.6781C11.8723 13.6803 11.4987 13.8393 11.2261 14.1193L11.2171 14.1286L10.9513 14.4048C10.3746 15.0039 9.98548 15.4063 9.65598 15.6668C9.3407 15.916 9.157 15.9717 9 15.9717C8.843 15.9717 8.6593 15.916 8.34402 15.6668C8.01452 15.4063 7.62536 15.0039 7.04868 14.4048L6.78288 14.1286L6.7739 14.1193C6.50131 13.8393 6.12769 13.6803 5.73685 13.6781L5.72392 13.6781C5.66911 13.6781 5.6467 13.6781 5.62845 13.6779C5.12654 13.6725 4.65057 13.5631 4.22028 13.3704C4.70242 12.6207 5.54386 12.1251 6.5 12.1251H11.5Z" fill="#4C40F7"/>
</svg>
