<svg width="18" height="20" viewBox="0 0 18 20" fill="none" xmlns="http://www.w3.org/2000/svg">
<path d="M14.8333 10C14.8333 12.3336 14.8333 13.5003 14.3792 14.3916C13.9797 15.1756 13.3423 15.8131 12.5583 16.2125C11.667 16.6667 10.5002 16.6667 8.16667 16.6667C5.83311 16.6667 4.66634 16.6667 3.77504 16.2125C2.99103 15.8131 2.35361 15.1756 1.95414 14.3916C1.5 13.5003 1.5 12.3336 1.5 10C1.5 7.66645 1.5 6.49967 1.95414 5.60837C2.35361 4.82436 2.99103 4.18694 3.77504 3.78747C4.66634 3.33333 5.83311 3.33333 8.16667 3.33333C10.5002 3.33333 11.667 3.33333 12.5583 3.78747C13.3423 4.18694 13.9797 4.82436 14.3792 5.60837C14.8333 6.49967 14.8333 7.66645 14.8333 10ZM14.8333 10H16.5M8.16667 6.66667V9.58333C8.16667 10.2737 8.72631 10.8333 9.41667 10.8333V10.8333H10.6667M4.83333 1.66667H11.5M4.83333 18.3333H11.5" stroke="#7881A4" stroke-width="1.4" stroke-linecap="round"/>
</svg>
