<svg width="14" height="13" viewBox="0 0 14 13" fill="none" xmlns="http://www.w3.org/2000/svg">
<path d="M1.86761 3.86026L2.35172 3.98532L1.86761 3.86026ZM4.055 1.80148L4.14917 2.29253L4.055 1.80148ZM5.3454 7.25039L5.20434 6.77071L5.3454 7.25039ZM6.03711 7.9421L5.55742 7.80104L6.03711 7.9421ZM9.42726 11.4199L9.55231 11.904L9.42726 11.4199ZM11.486 9.23252L11.9771 9.32669L11.486 9.23252ZM12.5827 3.51435L12.0916 3.42017L12.5827 3.51435ZM9.77315 0.704825L9.67898 0.213774L9.77315 0.704825ZM2.73116 9.84926C2.53589 10.0445 2.53589 10.3611 2.73116 10.5564C2.92642 10.7516 3.243 10.7516 3.43826 10.5564L2.73116 9.84926ZM4.32215 9.67249C4.51741 9.47722 4.51741 9.16064 4.32215 8.96538C4.12688 8.77012 3.8103 8.77012 3.61504 8.96538L4.32215 9.67249ZM3.1731 12.059C2.97783 12.2542 2.97783 12.5708 3.1731 12.7661C3.36836 12.9613 3.68494 12.9613 3.8802 12.7661L3.1731 12.059ZM4.76409 11.8822C4.95935 11.6869 4.95935 11.3703 4.76409 11.1751C4.56883 10.9798 4.25224 10.9798 4.05698 11.1751L4.76409 11.8822ZM0.521447 9.40732C0.326185 9.60258 0.326184 9.91916 0.521447 10.1144C0.716709 10.3097 1.03329 10.3097 1.22855 10.1144L0.521447 9.40732ZM2.11244 9.23054C2.3077 9.03528 2.3077 8.7187 2.11244 8.52344C1.91717 8.32817 1.60059 8.32817 1.40533 8.52344L2.11244 9.23054ZM12.0916 3.42017L10.995 9.13834L11.9771 9.32669L13.0737 3.60852L12.0916 3.42017ZM4.14917 2.29253L9.86733 1.19588L9.67898 0.213774L3.96082 1.31043L4.14917 2.29253ZM2.35172 3.98532C2.57467 3.12227 3.27683 2.45983 4.14917 2.29253L3.96082 1.31043C2.70584 1.55111 1.70233 2.501 1.38351 3.7352L2.35172 3.98532ZM5.20434 6.77071C3.50776 7.26963 1.90609 5.71042 2.35172 3.98532L1.38351 3.7352C0.746973 6.19929 3.0321 8.45186 5.48647 7.73008L5.20434 6.77071ZM6.5168 8.08316C6.75286 7.28044 6.00706 6.53464 5.20434 6.77071L5.48647 7.73008C5.5015 7.72566 5.5106 7.72687 5.51685 7.72859C5.52476 7.73077 5.53428 7.73578 5.543 7.7445C5.55173 7.75322 5.55674 7.76274 5.55891 7.77065C5.56063 7.77691 5.56184 7.786 5.55742 7.80104L6.5168 8.08316ZM9.3022 10.9358C7.57709 11.3814 6.01788 9.77975 6.5168 8.08316L5.55742 7.80104C4.83566 10.2554 7.08822 12.5406 9.55231 11.904L9.3022 10.9358ZM10.995 9.13834C10.8277 10.0107 10.1653 10.7129 9.3022 10.9358L9.55231 11.904C10.7865 11.5852 11.7364 10.5817 11.9771 9.32669L10.995 9.13834ZM13.0737 3.60852C13.4599 1.59521 11.6923 -0.172348 9.67898 0.213774L9.86733 1.19588C11.1865 0.942882 12.3446 2.10102 12.0916 3.42017L13.0737 3.60852ZM3.43826 10.5564L4.32215 9.67249L3.61504 8.96538L2.73116 9.84926L3.43826 10.5564ZM3.8802 12.7661L4.76409 11.8822L4.05698 11.1751L3.1731 12.059L3.8802 12.7661ZM1.22855 10.1144L2.11244 9.23054L1.40533 8.52344L0.521447 9.40732L1.22855 10.1144Z" fill="#394048"/>
</svg>
