<svg width="15" height="15" viewBox="0 0 15 15" fill="none" xmlns="http://www.w3.org/2000/svg">
<path d="M1.01986 7.12126V12.489H3.29236L3.40711 12.5025C5.51686 12.9945 6.91486 13.3493 7.61161 13.569C8.53711 13.8608 8.88211 13.932 9.50986 13.974C9.97936 14.0063 10.5126 13.8255 10.7556 13.578C10.8899 13.4415 10.9904 13.161 11.0301 12.726C11.0383 12.6348 11.0709 12.5475 11.1245 12.4732C11.1781 12.3989 11.2507 12.3404 11.3346 12.3038C11.5214 12.2228 11.6766 12.0908 11.8064 11.8988C11.9264 11.7233 12.0044 11.3963 12.0186 10.923C12.0211 10.836 12.0458 10.7511 12.0903 10.6763C12.1348 10.6015 12.1976 10.5393 12.2729 10.4955C12.7094 10.2428 12.9254 9.95776 12.9704 9.62326C13.0199 9.25351 12.8999 8.83726 12.5856 8.36326C12.5119 8.2521 12.4844 8.11656 12.5091 7.98546C12.5337 7.85436 12.6085 7.73805 12.7176 7.66126C13.0184 7.44976 13.1834 7.15576 13.2246 6.73876C13.2906 6.07426 12.8669 5.58301 11.9076 5.48476C11.0533 5.40027 10.1907 5.47219 9.36211 5.69701C9.26812 5.72158 9.16907 5.71878 9.07661 5.68896C8.98416 5.65915 8.90214 5.60354 8.84021 5.52869C8.77829 5.45385 8.73903 5.36287 8.72705 5.26646C8.71507 5.17006 8.73088 5.07224 8.7726 4.98451C9.1476 4.19101 9.35611 3.53626 9.40486 3.02926C9.46861 2.35651 9.31336 1.86901 8.95036 1.46701C8.67511 1.16251 8.23486 0.988514 8.06986 1.02451C7.85236 1.07101 7.71061 1.19701 7.52611 1.63801C7.41736 1.89901 7.36486 2.12101 7.27486 2.63926C7.18861 3.13126 7.14136 3.35326 7.04311 3.64426C6.74686 4.52626 6.0201 5.44051 5.04435 6.07126C4.3605 6.5128 3.61935 6.85852 2.84161 7.09876C2.79302 7.11374 2.74245 7.12133 2.69161 7.12126H1.01986ZM0.988355 13.5113C0.746105 13.518 0.528605 13.464 0.346355 13.3365C0.113855 13.1738 0.00435522 12.9173 0.00210522 12.6218L0.00435522 7.12951C-0.0211448 6.83701 0.0651052 6.56851 0.269105 6.36901C0.460355 6.18151 0.710105 6.09301 0.974105 6.09901H2.61286C3.27575 5.88779 3.90774 5.5897 4.49235 5.21251C5.27836 4.70401 5.85736 3.97501 6.07861 3.31801C6.15436 3.09151 6.19486 2.90401 6.27136 2.46301C6.37486 1.87126 6.43936 1.59601 6.58786 1.24201C6.89536 0.505514 7.29886 0.145514 7.85536 0.0247638C8.40286 -0.0937362 9.20011 0.222014 9.70411 0.780014C10.2629 1.39801 10.5096 2.17126 10.4181 3.12676C10.3791 3.53776 10.2651 3.99751 10.0776 4.50976C10.7179 4.41645 11.3673 4.40234 12.0111 4.46776C13.5164 4.62151 14.3616 5.60176 14.2386 6.84076C14.1846 7.37476 13.9911 7.82851 13.6619 8.18476C13.9386 8.71801 14.0489 9.24526 13.9799 9.75976C13.9004 10.3523 13.5704 10.8458 13.0214 11.229C12.9786 11.7488 12.8594 12.1635 12.6479 12.474C12.4812 12.7249 12.2638 12.938 12.0096 13.0995C11.9286 13.6125 11.7584 14.0138 11.4801 14.2958C11.0189 14.7653 10.1946 15.045 9.44161 14.994C8.72686 14.946 8.30385 14.859 7.30636 14.544C6.64861 14.3363 5.2866 13.9913 3.23386 13.5113H0.988355ZM2.26411 6.88801C2.26391 6.82091 2.27695 6.75443 2.3025 6.69238C2.32804 6.63034 2.36557 6.57394 2.41295 6.52642C2.46033 6.4789 2.51662 6.4412 2.57859 6.41548C2.64056 6.38975 2.707 6.37651 2.77411 6.37651C2.84108 6.37671 2.90736 6.3901 2.96916 6.41591C3.03096 6.44172 3.08707 6.47945 3.13429 6.52695C3.18151 6.57445 3.21891 6.63078 3.24436 6.69273C3.26981 6.75468 3.2828 6.82104 3.28261 6.88801V12.6465C3.2827 12.7135 3.26961 12.7798 3.24407 12.8417C3.21853 12.9037 3.18105 12.9599 3.13376 13.0074C3.08647 13.0548 3.03031 13.0924 2.96847 13.1182C2.90663 13.1439 2.84033 13.1572 2.77336 13.1573C2.70638 13.1572 2.64008 13.1439 2.57824 13.1182C2.51641 13.0924 2.46024 13.0548 2.41295 13.0074C2.36566 12.9599 2.32818 12.9037 2.30264 12.8417C2.2771 12.7798 2.26401 12.7135 2.26411 12.6465V6.88801Z" fill="#394048"/>
</svg>
