<svg width="13" height="14" viewBox="0 0 13 14" fill="none" xmlns="http://www.w3.org/2000/svg">
<path d="M4.46875 5.71875C4.46875 6.06393 4.18893 6.34375 3.84375 6.34375C3.49857 6.34375 3.21875 6.06393 3.21875 5.71875C3.21875 5.37357 3.49857 5.09375 3.84375 5.09375C4.18893 5.09375 4.46875 5.37357 4.46875 5.71875Z" fill="#394048"/>
<path d="M6.96875 5.71875C6.96875 6.06393 6.68893 6.34375 6.34375 6.34375C5.99857 6.34375 5.71875 6.06393 5.71875 5.71875C5.71875 5.37357 5.99857 5.09375 6.34375 5.09375C6.68893 5.09375 6.96875 5.37357 6.96875 5.71875Z" fill="#394048"/>
<path d="M9.46875 5.71875C9.46875 6.06393 9.18893 6.34375 8.84375 6.34375C8.49857 6.34375 8.21875 6.06393 8.21875 5.71875C8.21875 5.37357 8.49857 5.09375 8.84375 5.09375C9.18893 5.09375 9.46875 5.37357 9.46875 5.71875Z" fill="#394048"/>
<path d="M11.9688 1.96875C11.9688 2.65911 11.4091 3.21875 10.7188 3.21875C10.0284 3.21875 9.46875 2.65911 9.46875 1.96875C9.46875 1.27839 10.0284 0.71875 10.7188 0.71875C11.4091 0.71875 11.9688 1.27839 11.9688 1.96875Z" stroke="#394048"/>
<path d="M8.44267 0.933135C8.57384 0.645311 8.40317 0.259149 8.08689 0.254657C7.75879 0.249998 7.39494 0.249999 6.98972 0.25H5.69778C4.84045 0.249997 4.1683 0.249995 3.62808 0.294133C3.078 0.339077 2.62355 0.432112 2.21222 0.641695C1.53601 0.98624 0.98624 1.53601 0.641696 2.21222C0.432111 2.62355 0.339077 3.078 0.294133 3.62808C0.249996 4.16829 0.249998 4.84043 0.25 5.69773V8.36147C0.25 9.92224 1.51526 11.1875 3.07604 11.1875H3.45213C3.60744 11.1875 3.71365 11.3444 3.65596 11.4886C3.2268 12.5615 4.46244 13.5314 5.40275 12.8598L7.03447 11.6943L7.06516 11.6724C7.50822 11.3602 8.03619 11.191 8.5782 11.1876L8.62523 11.1875H8.64302C8.82117 11.1875 8.92862 11.1875 9.01369 11.1835C10.8649 11.0958 12.3458 9.61487 12.4335 7.76369C12.4375 7.67864 12.4375 7.58105 12.4375 7.42075V5.69778C12.4375 5.29257 12.4375 4.9287 12.4328 4.60061C12.4284 4.28433 12.0422 4.11366 11.7544 4.24483C11.6029 4.31388 11.4934 4.46152 11.4956 4.628C11.4999 4.94446 11.5 5.30416 11.5 5.71875V7.40552C11.5 7.58566 11.4999 7.65938 11.497 7.71936C11.4323 9.08762 10.3376 10.1823 8.96936 10.247C8.90953 10.2499 8.82631 10.25 8.62523 10.25L8.57219 10.2501C7.8389 10.2548 7.12458 10.4837 6.52514 10.9061L6.48955 10.9314L4.85784 12.0969C4.67943 12.2244 4.44498 12.0403 4.52641 11.8367C4.83042 11.0767 4.27069 10.25 3.45213 10.25H3.07604C2.03303 10.25 1.1875 9.40447 1.1875 8.36147V5.71875C1.1875 4.83593 1.18786 4.20201 1.22852 3.70443C1.26873 3.21232 1.34599 2.89498 1.47701 2.63784C1.73168 2.13803 2.13803 1.73168 2.63784 1.47701C2.89498 1.34599 3.21232 1.26873 3.70443 1.22852C4.20201 1.18786 4.83593 1.1875 5.71875 1.1875H6.96875C7.38334 1.1875 7.74304 1.18758 8.0595 1.19188C8.22598 1.19414 8.37362 1.08464 8.44267 0.933135Z" fill="#394048"/>
</svg>
