<svg width="18" height="19" viewBox="0 0 18 19" fill="none" xmlns="http://www.w3.org/2000/svg">
<path d="M14.7409 13.3333L14.1273 12.9966L14.7409 13.3333ZM3.25929 13.3333L2.64561 13.6701L3.25929 13.3333ZM1.52113 6.84055L0.822018 6.87584L1.52113 6.84055ZM13.3793 15.2329L13.9085 15.691L13.3793 15.2329ZM4.62097 15.2329L5.15025 14.7748L4.62097 15.2329ZM16.4859 6.36407L17.1854 6.39087L16.4859 6.36407ZM8.3 13.3333C8.3 13.7199 8.6134 14.0333 9 14.0333C9.3866 14.0333 9.7 13.7199 9.7 13.3333H8.3ZM15.7864 6.33727C15.7207 8.05308 15.386 10.7026 14.1273 12.9966L15.3546 13.6701C16.7655 11.0988 17.1162 8.19657 17.1854 6.39087L15.7864 6.33727ZM14.1273 12.9966C13.8065 13.5811 13.3612 14.1841 12.85 14.7748L13.9085 15.691C14.4596 15.0543 14.971 14.3692 15.3546 13.6701L14.1273 12.9966ZM5.15025 14.7748C4.63899 14.1841 4.19372 13.5811 3.87297 12.9966L2.64561 13.6701C3.02922 14.3692 3.54059 15.0543 4.0917 15.691L5.15025 14.7748ZM3.87297 12.9966C2.64843 10.765 2.29948 8.37485 2.22024 6.80525L0.822018 6.87584C0.906924 8.5577 1.28045 11.1822 2.64561 13.6701L3.87297 12.9966ZM3.30898 5.76943H3.56636V4.36943H3.30898V5.76943ZM14.1908 5.28332H14.6819V3.88332H14.1908V5.28332ZM12.0325 3.12499C12.0325 4.317 12.9988 5.28332 14.1908 5.28332V3.88332C13.772 3.88332 13.4325 3.54381 13.4325 3.12499H12.0325ZM3.56636 5.76943C4.89262 5.76943 5.96775 4.6943 5.96775 3.36805H4.56775C4.56775 3.9211 4.11942 4.36943 3.56636 4.36943V5.76943ZM6.96914 0.966657C5.64289 0.966657 4.56775 2.04179 4.56775 3.36805H5.96775C5.96775 2.81499 6.41609 2.36666 6.96914 2.36666V0.966657ZM2.22024 6.80525C2.19243 6.2545 2.64566 5.76943 3.30898 5.76943V4.36943C1.9588 4.36943 0.748302 5.41566 0.822018 6.87584L2.22024 6.80525ZM12.85 14.7748C12.0062 15.7496 11.4438 16.3934 10.8714 16.8127C10.3451 17.1983 9.80875 17.3923 9.00012 17.3923V18.7923C10.0957 18.7923 10.924 18.5097 11.6987 17.9421C12.4273 17.4084 13.1024 16.6224 13.9085 15.691L12.85 14.7748ZM4.0917 15.691C4.89784 16.6224 5.57292 17.4084 6.30149 17.9421C7.0762 18.5097 7.9045 18.7923 9.00012 18.7923V17.3923C8.19149 17.3923 7.65517 17.1983 7.12886 16.8127C6.5564 16.3934 5.99403 15.7496 5.15025 14.7748L4.0917 15.691ZM11.2741 2.36666C11.693 2.36666 12.0325 2.70617 12.0325 3.12499H13.4325C13.4325 1.93297 12.4662 0.966657 11.2741 0.966657V2.36666ZM17.1854 6.39087C17.241 4.93866 16.04 3.88332 14.6819 3.88332V5.28332C15.3426 5.28332 15.808 5.77223 15.7864 6.33727L17.1854 6.39087ZM6.96914 2.36666H11.2741V0.966657H6.96914V2.36666ZM8.3 9.99999V13.3333H9.7V9.99999H8.3ZM6.63333 8.33332C6.63333 9.6404 7.69293 10.7 9 10.7V9.29999C8.46612 9.29999 8.03333 8.8672 8.03333 8.33332H6.63333ZM9 10.7C10.3071 10.7 11.3667 9.6404 11.3667 8.33332H9.96667C9.96667 8.8672 9.53388 9.29999 9 9.29999V10.7ZM11.3667 8.33332C11.3667 7.02625 10.3071 5.96666 9 5.96666V7.36666C9.53388 7.36666 9.96667 7.79945 9.96667 8.33332H11.3667ZM9 5.96666C7.69293 5.96666 6.63333 7.02625 6.63333 8.33332H8.03333C8.03333 7.79945 8.46612 7.36666 9 7.36666V5.96666Z" fill="#7881A4"/>
</svg>
