<svg width="16" height="16" viewBox="0 0 16 16" fill="none" xmlns="http://www.w3.org/2000/svg">
<g clip-path="url(#clip0_187_1850)">
<path d="M13.637 2.36312L15.313 2.69812C15.403 2.71612 15.477 2.78212 15.503 2.87112C15.5161 2.91435 15.5173 2.96034 15.5064 3.00418C15.4955 3.04803 15.4729 3.08809 15.441 3.12012L14.068 4.49412C13.9037 4.65809 13.6811 4.75016 13.449 4.75012H12.31L9.45 7.61112C9.50456 7.81714 9.5146 8.03242 9.47943 8.24263C9.44427 8.45283 9.36472 8.65313 9.24607 8.83018C9.12743 9.00723 8.97242 9.15696 8.79137 9.2694C8.61032 9.38184 8.40739 9.45441 8.19609 9.48227C7.98479 9.51013 7.76999 9.49265 7.56598 9.43098C7.36197 9.36932 7.17344 9.26489 7.01296 9.12465C6.85248 8.98441 6.72372 8.81158 6.63527 8.61767C6.54682 8.42377 6.50071 8.21324 6.5 8.00012C6.50015 7.77001 6.55321 7.54302 6.65506 7.33668C6.75692 7.13034 6.90486 6.95019 7.08744 6.81013C7.27002 6.67008 7.48236 6.57388 7.70804 6.52897C7.93372 6.48406 8.16671 6.49164 8.389 6.55112L11.25 3.68912V2.55212C11.25 2.32012 11.342 2.09712 11.506 1.93312L12.88 0.559119C12.912 0.527248 12.9521 0.504652 12.9959 0.493735C13.0398 0.482818 13.0858 0.483988 13.129 0.497119C13.218 0.523119 13.284 0.597119 13.302 0.687119L13.637 2.36312Z" fill="white"/>
<path d="M2 7.9998C2.00103 8.85776 2.18604 9.70552 2.54257 10.4859C2.89909 11.2663 3.41883 11.9611 4.06673 12.5236C4.71462 13.086 5.4756 13.5029 6.29834 13.7463C7.12107 13.9896 7.98642 14.0536 8.83601 13.9341C9.6856 13.8145 10.4997 13.5142 11.2233 13.0533C11.947 12.5924 12.5633 11.9816 13.0309 11.2622C13.4984 10.5428 13.8062 9.73155 13.9335 8.88309C14.0609 8.03463 14.0048 7.16873 13.769 6.3438C13.7359 6.24742 13.7228 6.14532 13.7304 6.0437C13.738 5.94208 13.7662 5.84308 13.8133 5.75271C13.8604 5.66235 13.9254 5.58252 14.0044 5.51808C14.0833 5.45363 14.1745 5.40593 14.2725 5.37788C14.3705 5.34982 14.4731 5.34199 14.5742 5.35487C14.6753 5.36775 14.7727 5.40107 14.8605 5.4528C14.9483 5.50452 15.0246 5.57358 15.0849 5.65575C15.1452 5.73793 15.1881 5.83151 15.211 5.9308C15.6675 7.52833 15.5808 9.23221 14.9645 10.7751C14.3481 12.3181 13.237 13.6127 11.8054 14.456C10.3738 15.2993 8.70284 15.6435 7.05455 15.4346C5.40626 15.2257 3.87394 14.4755 2.698 13.3018C1.52334 12.1262 0.772376 10.5937 0.563004 8.94502C0.353633 7.29634 0.697713 5.62481 1.54122 4.19287C2.38473 2.76093 3.67991 1.64966 5.2234 1.03354C6.76689 0.417419 8.47129 0.331333 10.069 0.7888C10.2592 0.844412 10.4197 0.973068 10.5154 1.14665C10.6111 1.32024 10.6341 1.52463 10.5796 1.71518C10.525 1.90572 10.3972 2.06691 10.2242 2.16353C10.0511 2.26015 9.84684 2.28433 9.656 2.2308C8.76258 1.97447 7.82183 1.92916 6.90792 2.09847C5.994 2.26777 5.1319 2.64705 4.38959 3.2064C3.64728 3.76575 3.04504 4.48989 2.63036 5.32172C2.21568 6.15355 1.99989 7.07034 2 7.9998Z" fill="white"/>
<path d="M5 8.00023C5.00006 8.54682 5.14935 9.08302 5.43176 9.551C5.71418 10.019 6.119 10.401 6.60257 10.6558C7.08614 10.9106 7.63009 11.0285 8.17577 10.9969C8.72144 10.9652 9.24812 10.7852 9.699 10.4762C10.1498 10.1665 10.5073 9.73936 10.7329 9.24109C10.9585 8.74282 11.0436 8.19236 10.979 7.64923C10.9615 7.51743 10.9795 7.38335 11.031 7.26081C11.0826 7.13826 11.1659 7.03167 11.2724 6.95201C11.3788 6.87235 11.5046 6.82251 11.6367 6.80761C11.7688 6.7927 11.9025 6.81329 12.024 6.86723C12.1455 6.92047 12.2507 7.00498 12.3289 7.11214C12.407 7.21931 12.4554 7.34528 12.469 7.47723C12.5777 8.40533 12.3947 9.34424 11.9455 10.1636C11.4963 10.983 10.8032 11.6423 9.96234 12.0499C9.12148 12.4574 8.17459 12.5932 7.2531 12.4382C6.3316 12.2832 5.48121 11.8451 4.81996 11.1849C4.15871 10.5246 3.7194 9.67492 3.563 8.75366C3.40661 7.83241 3.54088 6.88531 3.94719 6.04383C4.35349 5.20235 5.01168 4.50822 5.83039 4.05779C6.64911 3.60737 7.58774 3.42298 8.516 3.53023C8.6154 3.53945 8.71195 3.56842 8.8 3.61544C8.88806 3.66247 8.96584 3.72659 9.02879 3.80407C9.09173 3.88154 9.13858 3.9708 9.16659 4.06661C9.19459 4.16242 9.20319 4.26286 9.19188 4.36204C9.18056 4.46122 9.14956 4.55714 9.10069 4.64418C9.05182 4.73123 8.98607 4.80764 8.90729 4.86894C8.82851 4.93024 8.73828 4.9752 8.6419 5.00118C8.54552 5.02716 8.44492 5.03363 8.346 5.02023C7.92566 4.97142 7.49974 5.0121 7.09624 5.13958C6.69273 5.26706 6.32076 5.47846 6.00475 5.7599C5.68874 6.04135 5.43585 6.38646 5.26268 6.77257C5.08952 7.15868 5 7.57706 5 8.00023Z" fill="white"/>
</g>
<defs>
<clipPath id="clip0_187_1850">
<rect width="16" height="16" fill="white"/>
</clipPath>
</defs>
</svg>
