<svg width="18" height="20" viewBox="0 0 18 20" fill="none" xmlns="http://www.w3.org/2000/svg">
<path d="M3.94327 4.48868L3.77307 5.16768L3.94327 4.48868ZM6.7554 2.8651L6.08228 2.673L6.7554 2.8651ZM1.69868 8.37643L2.20161 7.88954L1.69868 8.37643ZM1.69868 11.6236L1.19575 11.1367H1.19575L1.69868 11.6236ZM3.94327 15.5113L4.11347 16.1903L3.94327 15.5113ZM6.7554 17.1349L6.08228 17.327L6.7554 17.1349ZM11.2446 17.1349L11.9177 17.327L11.2446 17.1349ZM14.0567 15.5113L14.2269 14.8324L14.0567 15.5113ZM16.3013 11.6236L15.7984 12.1105L16.3013 11.6236ZM16.3013 8.37643L15.7984 7.88954L16.3013 8.37643ZM14.0567 4.48868L13.8865 3.80969L14.0567 4.48868ZM11.2446 2.8651L11.9177 2.673L11.2446 2.8651ZM3.77307 5.16768C5.36142 5.56582 6.97915 4.63182 7.42853 3.0572L6.08228 2.673C5.84025 3.52108 4.96895 4.02413 4.11347 3.80969L3.77307 5.16768ZM2.20161 7.88954C1.05804 6.70831 2.17831 4.76793 3.77307 5.16768L4.11347 3.80969C1.1525 3.06749 -0.927495 6.67015 1.19575 8.86332L2.20161 7.88954ZM2.20161 12.1105C3.34058 10.934 3.34058 9.06602 2.20161 7.88954L1.19575 8.86332C1.8092 9.49697 1.8092 10.5031 1.19575 11.1367L2.20161 12.1105ZM3.77307 14.8324C2.17831 15.2321 1.05804 13.2917 2.20161 12.1105L1.19575 11.1367C-0.927495 13.3299 1.1525 16.9325 4.11347 16.1903L3.77307 14.8324ZM7.42853 16.9428C6.97915 15.3682 5.36142 14.4342 3.77307 14.8324L4.11347 16.1903C4.96895 15.9759 5.84025 16.4789 6.08228 17.327L7.42853 16.9428ZM10.5715 16.9428C10.1203 18.5238 7.87972 18.5238 7.42853 16.9428L6.08228 17.327C6.92 20.2624 11.08 20.2624 11.9177 17.327L10.5715 16.9428ZM14.2269 14.8324C12.6386 14.4342 11.0208 15.3682 10.5715 16.9428L11.9177 17.327C12.1597 16.4789 13.031 15.9759 13.8865 16.1903L14.2269 14.8324ZM15.7984 12.1105C16.942 13.2917 15.8217 15.2321 14.2269 14.8324L13.8865 16.1903C16.8475 16.9325 18.9275 13.3299 16.8042 11.1367L15.7984 12.1105ZM15.7984 7.88954C14.6594 9.06602 14.6594 10.934 15.7984 12.1105L16.8042 11.1367C16.1908 10.5031 16.1908 9.49697 16.8042 8.86332L15.7984 7.88954ZM14.2269 5.16768C15.8217 4.76793 16.942 6.70831 15.7984 7.88954L16.8042 8.86332C18.9275 6.67015 16.8475 3.06749 13.8865 3.80969L14.2269 5.16768ZM10.5715 3.0572C11.0208 4.63182 12.6386 5.56582 14.2269 5.16768L13.8865 3.80969C13.031 4.02413 12.1597 3.52108 11.9177 2.673L10.5715 3.0572ZM11.9177 2.673C11.08 -0.262377 6.92 -0.262376 6.08228 2.673L7.42853 3.0572C7.87972 1.47622 10.1203 1.47622 10.5715 3.0572L11.9177 2.673ZM5.79999 10C5.79999 11.7673 7.23268 13.2 8.99999 13.2V11.8C8.00588 11.8 7.19999 10.9941 7.19999 10H5.79999ZM8.99999 13.2C10.7673 13.2 12.2 11.7673 12.2 10H10.8C10.8 10.9941 9.99411 11.8 8.99999 11.8V13.2ZM12.2 10C12.2 8.2327 10.7673 6.80001 8.99999 6.80001V8.20001C9.99411 8.20001 10.8 9.0059 10.8 10H12.2ZM8.99999 6.80001C7.23268 6.80001 5.79999 8.2327 5.79999 10H7.19999C7.19999 9.0059 8.00588 8.20001 8.99999 8.20001V6.80001Z" fill="#7881A4"/>
</svg>
