<svg width="18" height="17" viewBox="0 0 18 17" fill="none" xmlns="http://www.w3.org/2000/svg">
<path d="M1.32116 5.87396C1.88171 3.61653 3.67168 1.87111 5.94213 1.36802L6.32036 1.28421C8.0305 0.905264 9.80284 0.905265 11.513 1.28421L11.8912 1.36802C14.1617 1.87111 15.9516 3.61653 16.5122 5.87396C16.9404 7.59846 16.9404 9.40154 16.5122 11.126C15.9516 13.3835 14.1617 15.1289 11.8912 15.632L11.513 15.7158C9.80284 16.0947 8.0305 16.0947 6.32036 15.7158L5.94213 15.632C3.67168 15.1289 1.88171 13.3835 1.32116 11.126C0.892946 9.40155 0.892947 7.59846 1.32116 5.87396Z" stroke="#7881A4" stroke-width="1.4"/>
<path fill-rule="evenodd" clip-rule="evenodd" d="M8.91683 4.33334C9.23546 4.33334 9.49375 4.57666 9.49375 4.87681V5.32145H9.55765C10.6306 5.32145 11.4166 6.20013 11.4166 7.18245C11.4166 7.4826 11.1583 7.72593 10.8397 7.72593C10.5211 7.72593 10.2628 7.4826 10.2628 7.18245C10.2628 6.70947 9.90086 6.4084 9.55765 6.4084H9.49375V8.11937L10.2727 8.3862C10.9805 8.62868 11.4166 9.28813 11.4166 9.98652C11.4166 10.8755 10.7042 11.6785 9.72213 11.6785H9.49375V12.1232C9.49375 12.4233 9.23546 12.6667 8.91683 12.6667C8.59821 12.6667 8.33991 12.4233 8.33991 12.1232V11.6785H8.2756C7.20269 11.6785 6.41663 10.7998 6.41663 9.81749C6.41663 9.51734 6.67492 9.27402 6.99355 9.27402C7.31217 9.27402 7.57047 9.51734 7.57047 9.81749C7.57047 10.2905 7.9324 10.5915 8.2756 10.5915H8.33991V8.88071L7.56056 8.61374C6.85271 8.37126 6.41663 7.71182 6.41663 7.01342C6.41663 6.12445 7.12905 5.32145 8.11112 5.32145H8.33991V4.87681C8.33991 4.57666 8.59821 4.33334 8.91683 4.33334ZM8.33991 6.4084H8.11112C7.85876 6.4084 7.57047 6.6338 7.57047 7.01342C7.57047 7.30372 7.75002 7.52205 7.95488 7.59222L8.33991 7.72412V6.4084ZM9.49375 9.27596V10.5915H9.72213C9.9745 10.5915 10.2628 10.3661 10.2628 9.98652C10.2628 9.69622 10.0832 9.47789 9.87838 9.40772L9.49375 9.27596Z" fill="#7881A4"/>
</svg>
