<svg width="15" height="15" viewBox="0 0 15 15" fill="none" xmlns="http://www.w3.org/2000/svg">
<path d="M9.6171 13.6675C10.2415 13.7775 10.8835 13.7775 11.5079 13.6675C12.5115 13.4906 13.32 12.8168 13.5984 11.925L13.6575 11.7359C13.7189 11.5393 13.75 11.3359 13.75 11.1316C13.75 10.2305 12.9441 9.49999 11.9501 9.5H9.17492C8.18085 9.49999 7.375 10.2305 7.375 11.1316C7.375 11.3359 7.40614 11.5393 7.46753 11.7359L7.5266 11.925C7.80505 12.8168 8.61346 13.4906 9.6171 13.6675ZM9.6171 13.6675C5.27972 12.8638 1.88618 9.47028 1.08252 5.1329M1.08252 5.1329C0.972492 4.50848 0.972492 3.86652 1.08252 3.2421C1.25938 2.23846 1.93319 1.43005 2.82496 1.1516L3.01411 1.09253C3.21073 1.03114 3.41409 1 3.61843 1C4.51952 1 5.25001 1.80585 5.25 2.79992L5.25 5.57508C5.25 6.56915 4.51952 7.375 3.61843 7.375C3.41409 7.375 3.21073 7.34386 3.01411 7.28247L2.82496 7.22341C1.93319 6.94495 1.25938 6.13654 1.08252 5.1329Z" stroke="#4C40F7" stroke-width="1.2"/>
<path d="M8.08334 1.17879C9.61526 0.742303 11.3011 1.10386 12.4736 2.27636C13.6462 3.44887 14.0077 5.13475 13.5712 6.66667M9.45531 3.09955C10.0025 2.99057 10.6327 3.17933 11.1017 3.64833C11.5707 4.11734 11.7594 4.74755 11.6505 5.2947" stroke="#4C40F7" stroke-width="1.2" stroke-linecap="round" stroke-linejoin="round"/>
</svg>
