<svg width="13" height="15" viewBox="0 0 13 15" fill="none" xmlns="http://www.w3.org/2000/svg">
<path d="M2.16317 13.1532L2.45706 12.7487L2.16317 13.1532ZM1.47182 12.4618L1.87633 12.1679L1.47182 12.4618ZM11.5282 12.4618L11.1237 12.1679L11.5282 12.4618ZM10.8368 13.1532L11.1307 13.5577L10.8368 13.1532ZM10.8368 3.09682L11.1307 2.69231L10.8368 3.09682ZM11.5282 3.78817L11.1237 4.08206L11.5282 3.78817ZM2.16317 3.09682L2.45706 3.50133H2.45706L2.16317 3.09682ZM1.47182 3.78817L1.87633 4.08206L1.47182 3.78817ZM11.0111 10.0385L10.9329 9.54463L11.0111 10.0385ZM8.41347 12.6361L7.91963 12.5579L8.41347 12.6361ZM4.625 8.25C4.34886 8.25 4.125 8.47386 4.125 8.75C4.125 9.02614 4.34886 9.25 4.625 9.25V8.25ZM8.375 9.25C8.65114 9.25 8.875 9.02614 8.875 8.75C8.875 8.47386 8.65114 8.25 8.375 8.25V9.25ZM7.875 3.125C7.875 3.40114 8.09886 3.625 8.375 3.625C8.65114 3.625 8.875 3.40114 8.875 3.125H7.875ZM8.875 1.25C8.875 0.973858 8.65114 0.75 8.375 0.75C8.09886 0.75 7.875 0.973858 7.875 1.25H8.875ZM4.125 3.125C4.125 3.40114 4.34886 3.625 4.625 3.625C4.90114 3.625 5.125 3.40114 5.125 3.125H4.125ZM5.125 1.25C5.125 0.973858 4.90114 0.75 4.625 0.75C4.34886 0.75 4.125 0.973858 4.125 1.25H5.125ZM12.1069 10L12.6066 10.0171L12.1069 10ZM0.89308 6.25L0.393373 6.23288L0.89308 6.25ZM12.1069 6.25L12.6066 6.23288L12.1069 6.25ZM6.5 13.25C5.31707 13.25 4.47004 13.2493 3.81464 13.1783C3.16861 13.1083 2.76835 12.9748 2.45706 12.7487L1.86928 13.5577C2.37945 13.9283 2.97581 14.0933 3.70693 14.1725C4.42869 14.2507 5.33935 14.25 6.5 14.25V13.25ZM0.375 8.125C0.375 9.28565 0.374314 10.1963 0.452512 10.9181C0.531724 11.6492 0.696655 12.2456 1.06731 12.7557L1.87633 12.1679C1.65017 11.8566 1.51669 11.4564 1.44669 10.8104C1.37569 10.155 1.375 9.30793 1.375 8.125H0.375ZM2.45706 12.7487C2.23422 12.5868 2.03824 12.3908 1.87633 12.1679L1.06731 12.7557C1.2909 13.0635 1.56154 13.3341 1.86928 13.5577L2.45706 12.7487ZM11.1237 12.1679C10.9618 12.3908 10.7658 12.5868 10.5429 12.7487L11.1307 13.5577C11.4385 13.3341 11.7091 13.0635 11.9327 12.7557L11.1237 12.1679ZM10.5429 3.50133C10.7658 3.66324 10.9618 3.85922 11.1237 4.08206L11.9327 3.49428C11.7091 3.18653 11.4385 2.9159 11.1307 2.69231L10.5429 3.50133ZM1.86928 2.69231C1.56154 2.9159 1.2909 3.18654 1.06731 3.49428L1.87633 4.08206C2.03824 3.85922 2.23422 3.66324 2.45706 3.50133L1.86928 2.69231ZM10.9329 9.54463C9.38181 9.7903 8.1653 11.0068 7.91963 12.5579L8.90732 12.7144C9.08522 11.5911 9.96614 10.7102 11.0894 10.5323L10.9329 9.54463ZM4.625 9.25H8.375V8.25H4.625V9.25ZM12.1069 9.5C11.5566 9.5 11.2218 9.49888 10.9329 9.54463L11.0894 10.5323C11.2812 10.5019 11.52 10.5 12.1069 10.5L12.1069 9.5ZM11.625 8.125C11.625 8.85835 11.6249 9.46555 11.6072 9.98288L12.6066 10.0171C12.6251 9.47902 12.625 8.85281 12.625 8.125H11.625ZM11.6072 9.98288C11.5675 11.1418 11.438 11.7353 11.1237 12.1679L11.9327 12.7557C12.4399 12.0576 12.5665 11.1884 12.6066 10.0171L11.6072 9.98288ZM8.875 13.7319C8.875 13.145 8.87693 12.9062 8.90732 12.7144L7.91963 12.5579C7.87388 12.8468 7.875 13.1816 7.875 13.7319L8.875 13.7319ZM6.5 14.25C7.22781 14.25 7.85402 14.2501 8.39212 14.2316L8.35788 13.2322C7.84055 13.2499 7.23334 13.25 6.5 13.25V14.25ZM8.39212 14.2316C9.56341 14.1915 10.4326 14.0649 11.1307 13.5577L10.5429 12.7487C10.1103 13.063 9.51682 13.1925 8.35788 13.2322L8.39212 14.2316ZM1.375 8.125C1.375 7.39165 1.37506 6.78445 1.39279 6.26712L0.393373 6.23288C0.374937 6.77098 0.375 7.39719 0.375 8.125H1.375ZM1.39279 6.26712C1.43249 5.10818 1.56197 4.51474 1.87633 4.08206L1.06731 3.49428C0.560127 4.19236 0.433503 5.06159 0.393373 6.23288L1.39279 6.26712ZM0.89308 6.75H12.1069V5.75H0.89308V6.75ZM12.625 8.125C12.625 7.39719 12.6251 6.77098 12.6066 6.23288L11.6072 6.26712C11.6249 6.78445 11.625 7.39165 11.625 8.125H12.625ZM12.6066 6.23288C12.5665 5.06159 12.4399 4.19236 11.9327 3.49428L11.1237 4.08206C11.438 4.51474 11.5675 5.10818 11.6072 6.26712L12.6066 6.23288ZM8.875 3.125V2.51808H7.875V3.125H8.875ZM8.875 2.51808V1.25H7.875V2.51808H8.875ZM6.5 3C7.23335 3 7.84055 3.00006 8.35788 3.01779L8.39212 2.01837C7.85402 1.99994 7.22781 2 6.5 2V3ZM8.35788 3.01779C9.51682 3.05749 10.1103 3.18697 10.5429 3.50133L11.1307 2.69231C10.4326 2.18513 9.56341 2.0585 8.39212 2.01837L8.35788 3.01779ZM5.125 3.125V2.51808H4.125V3.125H5.125ZM5.125 2.51808V1.25H4.125V2.51808H5.125ZM6.5 2C5.77219 2 5.14598 1.99994 4.60788 2.01837L4.64212 3.01779C5.15945 3.00006 5.76665 3 6.5 3V2ZM4.60788 2.01837C3.43659 2.0585 2.56736 2.18513 1.86928 2.69231L2.45706 3.50133C2.88974 3.18697 3.48318 3.05749 4.64212 3.01779L4.60788 2.01837Z" fill="#394048"/>
</svg>
