<svg width="13" height="15" viewBox="0 0 13 15" fill="none" xmlns="http://www.w3.org/2000/svg">
<path d="M10.875 7.5C10.875 9.25016 10.875 10.1252 10.5344 10.7937C10.2348 11.3817 9.75673 11.8598 9.16872 12.1594C8.50025 12.5 7.62516 12.5 5.875 12.5C4.12484 12.5 3.24975 12.5 2.58128 12.1594C1.99327 11.8598 1.51521 11.3817 1.2156 10.7937C0.875 10.1252 0.875 9.25016 0.875 7.5C0.875 5.74984 0.875 4.87475 1.2156 4.20628C1.51521 3.61827 1.99327 3.14021 2.58128 2.8406C3.24975 2.5 4.12484 2.5 5.875 2.5C7.62516 2.5 8.50025 2.5 9.16872 2.8406C9.75673 3.14021 10.2348 3.61827 10.5344 4.20628C10.875 4.87475 10.875 5.74984 10.875 7.5ZM10.875 7.5H12.125M5.875 5V7.1875C5.875 7.70527 6.29474 8.125 6.8125 8.125V8.125H7.75M3.375 1.25H8.375M3.375 13.75H8.375" stroke="#394048" stroke-linecap="round"/>
</svg>
