<svg width="11" height="14" viewBox="0 0 11 14" fill="none" xmlns="http://www.w3.org/2000/svg">
<path d="M7.5 3.75C7.5 4.85457 6.60457 5.75 5.5 5.75V6.75C7.15685 6.75 8.5 5.40685 8.5 3.75H7.5ZM5.5 5.75C4.39543 5.75 3.5 4.85457 3.5 3.75H2.5C2.5 5.40685 3.84315 6.75 5.5 6.75V5.75ZM3.5 3.75C3.5 2.64543 4.39543 1.75 5.5 1.75V0.75C3.84315 0.75 2.5 2.09315 2.5 3.75H3.5ZM5.5 1.75C6.60457 1.75 7.5 2.64543 7.5 3.75H8.5C8.5 2.09315 7.15685 0.75 5.5 0.75V1.75ZM3.625 8.625H7.375V7.625H3.625V8.625ZM7.375 12.625H3.625V13.625H7.375V12.625ZM3.625 12.625C2.52043 12.625 1.625 11.7296 1.625 10.625H0.625C0.625 12.2819 1.96815 13.625 3.625 13.625V12.625ZM9.375 10.625C9.375 11.7296 8.47957 12.625 7.375 12.625V13.625C9.03185 13.625 10.375 12.2819 10.375 10.625H9.375ZM7.375 8.625C8.47957 8.625 9.375 9.52043 9.375 10.625H10.375C10.375 8.96815 9.03185 7.625 7.375 7.625V8.625ZM3.625 7.625C1.96815 7.625 0.625 8.96815 0.625 10.625H1.625C1.625 9.52043 2.52043 8.625 3.625 8.625V7.625Z" fill="#394048"/>
</svg>
