<svg width="15" height="16" viewBox="0 0 15 16" fill="none" xmlns="http://www.w3.org/2000/svg">
<path fill-rule="evenodd" clip-rule="evenodd" d="M7.5 2.30192C5.64179 2.30192 4.13542 3.8083 4.13542 5.6665C4.13542 7.52471 5.64179 9.03109 7.5 9.03109C9.35821 9.03109 10.8646 7.52471 10.8646 5.6665C10.8646 3.8083 9.35821 2.30192 7.5 2.30192ZM5.19792 5.6665C5.19792 4.3951 6.22859 3.36442 7.5 3.36442C8.77141 3.36442 9.80208 4.3951 9.80208 5.6665C9.80208 6.93791 8.77141 7.96859 7.5 7.96859C6.22859 7.96859 5.19792 6.93791 5.19792 5.6665Z" fill="#4C40F7"/>
<path fill-rule="evenodd" clip-rule="evenodd" d="M10.5929 0.941387C9.94444 0.885247 9.136 0.88525 8.1048 0.885254H6.8952C5.864 0.88525 5.05556 0.885247 4.40715 0.941387C3.74667 0.998571 3.20269 1.11701 2.71472 1.38346C2.02944 1.75765 1.46615 2.32094 1.09195 3.00623C0.825507 3.49419 0.707067 4.03817 0.649883 4.69865C0.593744 5.34706 0.593746 6.1555 0.59375 7.1867V9.42102C0.59375 9.46246 0.59375 9.48769 0.593987 9.5097C0.60922 10.9211 1.34183 12.1595 2.44228 12.8781C3.0705 13.2883 3.81933 13.5298 4.62271 13.5384C4.6447 13.5387 4.66991 13.5387 4.71125 13.5387L4.71958 13.5387L4.72045 13.5387C4.76791 13.5389 4.81328 13.5582 4.84638 13.5922L4.84695 13.5928L5.10197 13.8578C5.55924 14.3329 5.93986 14.7284 6.28349 15C6.64574 15.2864 7.03073 15.4882 7.5 15.4882C7.96927 15.4882 8.35426 15.2864 8.71651 15C9.06014 14.7284 9.44073 14.3329 9.89799 13.8578L10.1536 13.5922C10.1867 13.5582 10.2321 13.5389 10.2795 13.5387L10.2804 13.5387L10.2887 13.5387C10.3301 13.5387 10.3553 13.5387 10.3773 13.5384C11.1807 13.5298 11.9295 13.2883 12.5577 12.8781C13.6582 12.1595 14.3908 10.9211 14.406 9.5097C14.4062 9.48761 14.4062 9.46227 14.4062 9.42053V7.18668C14.4063 6.15549 14.4063 5.34706 14.3501 4.69865C14.2929 4.03817 14.1745 3.49419 13.908 3.00623C13.5339 2.32094 12.9706 1.75765 12.2853 1.38346C11.7973 1.11701 11.2533 0.998571 10.5929 0.941387ZM3.22393 2.31599C3.52935 2.14922 3.90835 2.05105 4.4988 1.99993C5.09603 1.94822 5.85856 1.94775 6.92046 1.94775H8.07954C9.14144 1.94775 9.90397 1.94822 10.5012 1.99993C11.0916 2.05105 11.4706 2.14922 11.7761 2.31599C12.2826 2.59257 12.6989 3.00891 12.9755 3.51543C13.1423 3.82085 13.2405 4.19986 13.2916 4.7903C13.3433 5.38754 13.3438 6.15006 13.3438 7.21196V9.41709C13.3438 9.42582 13.3437 9.43358 13.3437 9.44053C13.3437 9.47067 13.3437 9.48562 13.3436 9.49823C13.3346 10.3273 12.9912 11.0761 12.4406 11.6157C11.8398 10.6995 10.8036 10.0936 9.625 10.0936H5.375C4.19638 10.0936 3.16015 10.6995 2.55941 11.6157C2.00882 11.0761 1.66537 10.3273 1.65643 9.49824C1.65626 9.48271 1.65625 9.46365 1.65625 9.41708V7.21196C1.65625 6.15006 1.65671 5.38753 1.70842 4.7903C1.75954 4.19986 1.85771 3.82085 2.02449 3.51543C2.30107 3.00891 2.71741 2.59257 3.22393 2.31599ZM9.625 11.1561C10.4377 11.1561 11.1529 11.5774 11.5628 12.2146C11.197 12.3784 10.7924 12.4714 10.3658 12.476C10.3503 12.4762 10.3313 12.4762 10.2847 12.4762L10.2737 12.4762C9.94146 12.478 9.62389 12.6131 9.39219 12.8512L9.38455 12.8591L9.15862 13.0939C8.66845 13.6031 8.33766 13.9451 8.05758 14.1665C7.7896 14.3784 7.63345 14.4257 7.5 14.4257C7.36655 14.4257 7.2104 14.3784 6.94242 14.1665C6.66234 13.9451 6.33155 13.6031 5.84138 13.0939L5.61545 12.8591L5.60781 12.8512C5.37611 12.6131 5.05854 12.478 4.72632 12.4762L4.71533 12.4762C4.66874 12.4762 4.6497 12.4762 4.63418 12.476C4.20756 12.4714 3.80299 12.3784 3.43724 12.2146C3.84706 11.5774 4.56228 11.1561 5.375 11.1561H9.625Z" fill="#4C40F7"/>
</svg>
