<svg width="13" height="13" viewBox="0 0 13 13" fill="none" xmlns="http://www.w3.org/2000/svg">
<path d="M6.8125 8.1875H9" stroke="#394048" stroke-linecap="round"/>
<path d="M4 5.0625L5.29883 6.14486C5.59868 6.39473 5.59868 6.85527 5.29883 7.10514L4 8.1875" stroke="#394048" stroke-linecap="round" stroke-linejoin="round"/>
<path d="M1.09555 4.71902C1.50273 2.98313 2.85813 1.62773 4.59402 1.22055C5.84766 0.926484 7.15234 0.926484 8.40598 1.22055C10.1419 1.62773 11.4973 2.98313 11.9045 4.71902C12.1985 5.97266 12.1985 7.27734 11.9045 8.53098C11.4973 10.2669 10.1419 11.6223 8.40598 12.0295C7.15234 12.3235 5.84766 12.3235 4.59402 12.0295C2.85813 11.6223 1.50273 10.2669 1.09555 8.53098C0.801484 7.27734 0.801484 5.97266 1.09555 4.71902Z" stroke="#394048"/>
</svg>
