<svg width="15" height="15" viewBox="0 0 15 15" fill="none" xmlns="http://www.w3.org/2000/svg">
<path d="M8.20833 4.13542C7.91493 4.13542 7.67708 4.37327 7.67708 4.66667C7.67708 4.96007 7.91493 5.19792 8.20833 5.19792H10.3333C10.6267 5.19792 10.8646 4.96007 10.8646 4.66667C10.8646 4.37327 10.6267 4.13542 10.3333 4.13542H8.20833Z" fill="#4C40F7"/>
<path d="M4.66667 6.96875C4.37327 6.96875 4.13542 7.2066 4.13542 7.5C4.13542 7.7934 4.37327 8.03125 4.66667 8.03125H10.3333C10.6267 8.03125 10.8646 7.7934 10.8646 7.5C10.8646 7.2066 10.6267 6.96875 10.3333 6.96875H4.66667Z" fill="#4C40F7"/>
<path d="M8.20833 9.80208C7.91493 9.80208 7.67708 10.0399 7.67708 10.3333C7.67708 10.6267 7.91493 10.8646 8.20833 10.8646H10.3333C10.6267 10.8646 10.8646 10.6267 10.8646 10.3333C10.8646 10.0399 10.6267 9.80208 10.3333 9.80208H8.20833Z" fill="#4C40F7"/>
<path fill-rule="evenodd" clip-rule="evenodd" d="M10.6617 0.681391C9.85265 0.59374 8.83293 0.593744 7.53205 0.59375H7.46795C6.16707 0.593744 5.14735 0.59374 4.33834 0.681391C3.51275 0.770838 2.84381 0.956646 2.27267 1.37161C1.9269 1.62282 1.62282 1.9269 1.37161 2.27267C0.956646 2.84381 0.770838 3.51275 0.681391 4.33834C0.59374 5.14735 0.593744 6.16707 0.59375 7.46795V7.50784C0.59375 8.32954 0.59375 9.03601 0.614553 9.64319C0.660018 10.9702 0.803627 11.9456 1.37161 12.7273C1.62282 13.0731 1.9269 13.3772 2.27267 13.6284C3.05443 14.1964 4.02979 14.34 5.35681 14.3854C5.964 14.4062 6.67048 14.4062 7.4922 14.4062H7.53207C8.83291 14.4063 9.85266 14.4063 10.6617 14.3186C11.4873 14.2292 12.1562 14.0434 12.7273 13.6284C13.0731 13.3772 13.3772 13.0731 13.6284 12.7273C14.0434 12.1562 14.2292 11.4873 14.3186 10.6617C14.4063 9.85266 14.4063 8.83297 14.4062 7.53212V7.46793C14.4063 6.16709 14.4063 5.14734 14.3186 4.33834C14.2292 3.51275 14.0434 2.84381 13.6284 2.27267C13.3772 1.9269 13.0731 1.62282 12.7273 1.37161C12.1562 0.956646 11.4873 0.770838 10.6617 0.681391ZM2.89719 2.23119C3.25702 1.96975 3.71759 1.81736 4.45278 1.73771C5.19791 1.65698 6.16014 1.65625 7.5 1.65625C8.83986 1.65625 9.80209 1.65698 10.5472 1.73771C11.2824 1.81736 11.743 1.96975 12.1028 2.23119C12.3584 2.41687 12.5831 2.64162 12.7688 2.89719C13.0302 3.25702 13.1826 3.71759 13.2623 4.45278C13.343 5.19791 13.3438 6.16014 13.3438 7.5C13.3438 8.83986 13.343 9.80209 13.2623 10.5472C13.1826 11.2824 13.0302 11.743 12.7688 12.1028C12.5831 12.3584 12.3584 12.5831 12.1028 12.7688C11.743 13.0302 11.2824 13.1826 10.5472 13.2623C9.80209 13.343 8.83986 13.3438 7.5 13.3438C6.89909 13.3438 6.37249 13.3437 5.90496 13.3361C5.90186 12.9999 5.8914 12.7524 5.85611 12.5295C5.58008 10.7868 4.21325 9.41992 2.47048 9.14389C2.24763 9.1086 2.00012 9.09814 1.66391 9.09504C1.65629 8.62751 1.65625 8.10091 1.65625 7.5C1.65625 6.16014 1.65698 5.19791 1.73771 4.45278C1.81736 3.71759 1.96975 3.25702 2.23119 2.89719C2.41687 2.64162 2.64162 2.41687 2.89719 2.23119ZM4.80669 12.6957C4.82969 12.841 4.83846 13.0091 4.84178 13.296C3.8782 13.2296 3.3218 13.0773 2.89719 12.7688C2.64162 12.5831 2.41687 12.3584 2.23119 12.1028C1.92269 11.6782 1.77044 11.1218 1.70402 10.1582C1.99086 10.1615 2.15903 10.1703 2.30427 10.1933C3.5924 10.3973 4.60267 11.4076 4.80669 12.6957Z" fill="#4C40F7"/>
</svg>
