<svg width="20" height="16" viewBox="0 0 20 16" fill="none" xmlns="http://www.w3.org/2000/svg">
<path d="M9.94697 14.6667L5.68335 14.6667C4.45517 14.6667 3.32131 14.0081 2.7128 12.9412L2.55667 12.6675C2.51522 12.5948 2.48327 12.5171 2.46162 12.4363C2.36438 12.0734 2.48388 11.6869 2.76897 11.4422L3.20644 11.0667C4.41167 10.0322 3.88398 8.06282 2.32297 7.76952L1.88021 7.68634C1.43526 7.60274 1.07767 7.27137 0.960494 6.83406C0.43108 4.85826 1.60361 2.82738 3.57941 2.29796V2.29796C4.44597 2.06577 4.87924 1.94967 5.25938 1.99411C5.80628 2.05803 6.30263 2.3446 6.63144 2.78626C6.85999 3.09326 6.97609 3.52654 7.20828 4.3931L7.59172 5.8241L8.28031 8.49782M8.28031 14.6667H15.4099C17.4554 14.6667 19.1136 13.0085 19.1136 10.963C19.1136 10.5102 18.854 10.0976 18.4458 9.90167L18.0397 9.70673C16.6078 9.01941 16.6078 6.98058 18.0397 6.29326L18.4458 6.09831C18.854 5.9024 19.1136 5.48977 19.1136 5.03703C19.1136 2.99153 17.4554 1.33333 15.4099 1.33333H12.2803C10.3947 1.33333 9.45188 1.33333 8.86609 1.91911C8.28031 2.5049 8.28031 3.44771 8.28031 5.33333V8.83333" stroke="#7881A4" stroke-width="1.4" stroke-linecap="round"/>
<path d="M8.28027 4.66666L8.28027 14.6667" stroke="#7881A4" stroke-width="1.2" stroke-linecap="round" stroke-dasharray="2 3"/>
</svg>
