<svg width="12" height="16" viewBox="0 0 12 16" fill="none" xmlns="http://www.w3.org/2000/svg">
<path d="M9.3334 0C7.86303 0 6.66675 1.19628 6.66675 2.66666C6.66675 4.13703 7.86303 5.33331 9.3334 5.33331C10.8038 5.33331 12.0001 4.13703 12.0001 2.66666C12.0001 1.19628 10.8038 0 9.3334 0ZM9.9024 3.23569C9.83731 3.30078 9.752 3.33334 9.66672 3.33334C9.58144 3.33334 9.49615 3.30078 9.43103 3.23569L9.09768 2.90234C9.03518 2.83984 9.00003 2.75522 9.00003 2.66666V1.66666C9.00003 1.48241 9.14912 1.33331 9.33337 1.33331C9.51762 1.33331 9.66672 1.48241 9.66672 1.66666V2.52863L9.9024 2.76431C10.0326 2.89453 10.0326 3.10547 9.9024 3.23569Z" fill="#B3B6B9"/>
<path d="M6.40331 8.66666H4.66666C4.29916 8.66666 4 8.3675 4 8V5.33334C4 4.59797 3.40203 4 2.66666 4C1.93128 4 1.33331 4.59797 1.33331 5.33334V9C1.33331 9.65316 1.60481 10.2427 2.03884 10.6667H1.33331C0.965813 10.6667 0.666656 10.3675 0.666656 10V4.33334C0.666656 4.14909 0.517563 4 0.333313 4C0.149094 4 0 4.14909 0 4.33334V10C0 10.7353 0.597969 11.3333 1.33334 11.3333H2V15.3333H1C0.81575 15.3333 0.666656 15.4824 0.666656 15.6667C0.666656 15.8509 0.81575 16 1 16H3.66666C3.85091 16 4 15.8509 4 15.6667C4 15.4824 3.85091 15.3333 3.66666 15.3333H2.66666V11.3333H5.33331V14.9632C5.33331 15.5348 5.79847 16 6.37009 16C6.89906 16 7.34244 15.6035 7.40038 15.0827L7.99022 10.4401C7.99672 10.3812 8 10.3222 8 10.2633C8 9.38281 7.28384 8.66666 6.40331 8.66666Z" fill="#B3B6B9"/>
<path d="M2.99991 3.33331C3.92038 3.33331 4.66656 2.58713 4.66656 1.66666C4.66656 0.746187 3.92038 0 2.99991 0C2.07944 0 1.33325 0.746187 1.33325 1.66666C1.33325 2.58713 2.07944 3.33331 2.99991 3.33331Z" fill="#B3B6B9"/>
</svg>
