<svg width="32" height="32" viewBox="0 0 32 32" fill="none" xmlns="http://www.w3.org/2000/svg">
<path d="M18.8501 15.1169C19.3701 12.9302 17.4634 11.0234 15.2767 11.5434C14.2501 11.7968 13.4101 12.6368 13.1567 13.6635C12.6367 15.8502 14.5434 17.7568 16.7301 17.2368C17.7701 16.9835 18.6101 16.1435 18.8501 15.1169Z" fill="#007AFF"/>
<path d="M8.03963 23.9574C7.79963 23.9574 7.54629 23.8641 7.35962 23.6908C4.77295 21.2908 3.29297 17.904 3.29297 14.384C3.29297 7.3707 8.99963 1.66406 16.013 1.66406C23.0263 1.66406 28.733 7.3707 28.733 14.384C28.733 17.9307 27.3063 21.2107 24.7196 23.6507C24.3196 24.024 23.6796 24.0108 23.3063 23.6108C22.933 23.2108 22.9463 22.5708 23.3463 22.1974C25.533 20.1441 26.733 17.384 26.733 14.3974C26.733 8.49071 21.9196 3.67741 16.013 3.67741C10.1063 3.67741 5.29297 8.49071 5.29297 14.3974C5.29297 17.4107 6.50629 20.1841 8.71962 22.2374C9.11962 22.6107 9.1463 23.2507 8.77297 23.6507C8.57297 23.8507 8.3063 23.9574 8.03963 23.9574Z" fill="#007AFF"/>
<path d="M21.3392 20.3981C21.0992 20.3981 20.8459 20.3048 20.6592 20.1314C20.2592 19.7581 20.2326 19.1181 20.6192 18.7181C21.7259 17.5448 22.3392 15.9981 22.3392 14.3981C22.3392 10.9048 19.4992 8.07812 16.0192 8.07812C12.5392 8.07812 9.69922 10.9181 9.69922 14.3981C9.69922 16.0114 10.3125 17.5448 11.4192 18.7181C11.7925 19.1181 11.7792 19.7581 11.3792 20.1314C10.9792 20.5181 10.3392 20.4915 9.96588 20.0915C8.51255 18.5448 7.69922 16.5181 7.69922 14.3981C7.69922 9.81145 11.4325 6.07812 16.0192 6.07812C20.6059 6.07812 24.3392 9.81145 24.3392 14.3981C24.3392 16.5181 23.5392 18.5448 22.0725 20.0915C21.8726 20.2915 21.6059 20.3981 21.3392 20.3981Z" fill="#007AFF"/>
<path d="M13.7421 22.2091L11.8221 24.5959C10.3021 26.5025 11.6488 29.3158 14.0888 29.3158H17.9154C20.3554 29.3158 21.7154 26.4892 20.1821 24.5959L18.2621 22.2091C17.1154 20.7558 14.9021 20.7558 13.7421 22.2091Z" fill="#007AFF"/>
</svg>
