<svg width="32" height="32" viewBox="0 0 32 32" fill="none" xmlns="http://www.w3.org/2000/svg">
<path d="M13.9869 2.9682L7.33354 5.46155C5.8002 6.03488 4.54688 7.8482 4.54688 9.4882V19.3949C4.54688 20.9682 5.58689 23.0349 6.85356 23.9816L12.5869 28.2615C14.4669 29.6749 17.5602 29.6749 19.4402 28.2615L25.1735 23.9816C26.4402 23.0349 27.4802 20.9682 27.4802 19.3949V9.4882C27.4802 7.8482 26.2269 6.03488 24.6935 5.46155L18.0402 2.9682C16.9069 2.55487 15.0935 2.55487 13.9869 2.9682Z" fill="#007AFF"/>
<path d="M15.8657 15.0625C15.8924 15.0625 15.9191 15.0625 15.9457 15.0625H15.9724H15.9991C17.5324 15.0091 18.7324 13.7691 18.7457 12.2225C18.7457 10.6491 17.4657 9.36914 15.8924 9.36914C14.3191 9.36914 13.0391 10.6491 13.0391 12.2225C13.0657 13.7558 14.2657 15.0091 15.8657 15.0625Z" fill="white"/>
<path d="M18.9189 17.8742C17.3056 16.8076 14.6922 16.8076 13.0656 17.8742C12.3189 18.3809 11.8789 19.1009 11.8789 19.8475C11.8789 20.6075 12.3056 21.3009 13.0656 21.8075C13.8789 22.3409 14.9322 22.6209 15.9856 22.6209C17.0389 22.6209 18.1056 22.3542 18.9056 21.8075C19.6522 21.3009 20.0922 20.5809 20.0922 19.8342C20.1056 19.0742 19.6789 18.3809 18.9189 17.8742Z" fill="white"/>
</svg>
