<svg width="32" height="32" viewBox="0 0 32 32" fill="none" xmlns="http://www.w3.org/2000/svg">
<path d="M23.3734 10.3554C23.28 10.3421 23.1867 10.3421 23.0934 10.3554C21.0267 10.2888 19.3867 8.59544 19.3867 6.51544C19.3867 4.39544 21.1067 2.66211 23.2401 2.66211C25.3601 2.66211 27.0934 4.38211 27.0934 6.51544C27.0801 8.59544 25.44 10.2888 23.3734 10.3554Z" fill="#007AFF"/>
<path d="M27.7234 19.5966C26.2301 20.5966 24.1367 20.9699 22.2034 20.7166C22.7101 19.6233 22.9767 18.41 22.9901 17.13C22.9901 15.7966 22.6967 14.53 22.1367 13.4233C24.1101 13.1566 26.2034 13.5299 27.7101 14.5299C29.8167 15.9166 29.8167 18.1966 27.7234 19.5966Z" fill="#007AFF"/>
<path d="M8.58328 10.3554C8.67661 10.3421 8.76995 10.3421 8.86328 10.3554C10.9299 10.2888 12.5699 8.59544 12.5699 6.51544C12.5699 4.39544 10.8499 2.66211 8.71661 2.66211C6.59661 2.66211 4.86328 4.38211 4.86328 6.51544C4.87661 8.59544 6.51661 10.2888 8.58328 10.3554Z" fill="#007AFF"/>
<path d="M8.73349 17.1302C8.73349 18.4236 9.01349 19.6502 9.52015 20.7569C7.64016 20.9569 5.68016 20.5569 4.24016 19.6102C2.13349 18.2102 2.13349 15.9302 4.24016 14.5302C5.66682 13.5702 7.68016 13.1836 9.57349 13.3969C9.02682 14.5169 8.73349 15.7836 8.73349 17.1302Z" fill="#007AFF"/>
<path d="M16.1623 21.1561C16.0557 21.1428 15.9357 21.1428 15.8157 21.1561C13.3623 21.0761 11.4023 19.0628 11.4023 16.5828C11.4023 14.0494 13.4423 11.9961 15.989 11.9961C18.5223 11.9961 20.5757 14.0494 20.5757 16.5828C20.5757 19.0628 18.629 21.0761 16.1623 21.1561Z" fill="#007AFF"/>
<path d="M11.8264 23.9176C9.81307 25.2642 9.81307 27.4776 11.8264 28.8109C14.1197 30.3442 17.8797 30.3442 20.1731 28.8109C22.1864 27.4642 22.1864 25.2509 20.1731 23.9176C17.8931 22.3842 14.1331 22.3842 11.8264 23.9176Z" fill="#007AFF"/>
</svg>
