<svg width="32" height="32" viewBox="0 0 32 32" fill="none" xmlns="http://www.w3.org/2000/svg">
<path d="M25.6208 8.47611C24.2341 5.67611 21.5541 3.60944 18.4474 2.92944C15.1941 2.20944 11.8608 2.98277 9.31411 5.03611C6.75411 7.07611 5.30078 10.1294 5.30078 13.3961C5.30078 16.8494 7.36745 20.4628 10.4874 22.5561V23.6628C10.4741 24.0361 10.4608 24.6094 10.9141 25.0761C11.3808 25.5561 12.0741 25.6094 12.6208 25.6094H19.4608C20.1808 25.6094 20.7274 25.4094 21.1008 25.0361C21.6074 24.5161 21.5941 23.8494 21.5808 23.4894V22.5561C25.7141 19.7694 28.3141 13.8894 25.6208 8.47611Z" fill="#007AFF"/>
<path d="M20.3534 29.3299C20.2734 29.3299 20.18 29.3166 20.1 29.2899C17.42 28.5299 14.6067 28.5299 11.9267 29.2899C11.4334 29.4233 10.9134 29.1433 10.78 28.6499C10.6334 28.1566 10.9267 27.6366 11.42 27.5033C14.4334 26.6499 17.6067 26.6499 20.62 27.5033C21.1134 27.6499 21.4067 28.1566 21.26 28.6499C21.1267 29.0633 20.7534 29.3299 20.3534 29.3299Z" fill="#007AFF"/>
<path d="M16.0083 18.4633C15.8349 18.4633 15.6616 18.4233 15.5149 18.3299C15.0349 18.0499 14.8749 17.4366 15.1416 16.9699L16.2749 14.9966H15.1549C14.4883 14.9966 13.9416 14.7033 13.6483 14.2099C13.3549 13.7033 13.3816 13.0899 13.7149 12.5033L15.1416 10.0233C15.4216 9.54328 16.0349 9.38328 16.5016 9.64995C16.9816 9.92995 17.1416 10.5433 16.8749 11.0099L15.7416 12.9966H16.8616C17.5283 12.9966 18.0749 13.2899 18.3683 13.7833C18.6616 14.2899 18.6349 14.9033 18.3016 15.4899L16.8749 17.9699C16.6883 18.2899 16.3549 18.4633 16.0083 18.4633Z" fill="white"/>
</svg>
